<svg width="40" height="40" viewBox="0 0 40 40" fill="none" xmlns="http://www.w3.org/2000/svg">
<path d="M15.9278 20L4.96456 9.03914C4.84116 8.91471 4.6915 8.81943 4.52655 8.76029C4.36158 8.70115 4.18549 8.67961 4.01112 8.69727C3.83677 8.71494 3.66855 8.77134 3.51881 8.86238C3.36907 8.9534 3.24157 9.07674 3.14565 9.22338C1.09143 12.4408 0 16.1784 0 19.9954C0 23.8125 1.09143 27.5499 3.14565 30.7674C3.2418 30.9138 3.36938 31.0368 3.51912 31.1277C3.66886 31.2184 3.83698 31.2747 4.01123 31.2923C4.18549 31.3101 4.36147 31.2887 4.52639 31.2296C4.69131 31.1707 4.84099 31.0758 4.96456 30.9515L15.9278 20Z" fill="#0594DA"/>
<path d="M20.004 2.32205e-07C18.4742 -0.000233075 16.9493 0.175345 15.4596 0.523265C15.2564 0.572478 15.0702 0.674914 14.9198 0.820031C14.7695 0.965149 14.6607 1.1477 14.6043 1.34888C14.548 1.55006 14.5463 1.76261 14.5994 1.96465C14.6526 2.1667 14.7587 2.35094 14.9066 2.49839L24.1708 11.7623L30.6041 18.1926C30.8417 18.43 31.0301 18.712 31.1588 19.0223C31.2873 19.3326 31.3535 19.665 31.3535 20.0008C31.3535 20.3368 31.2873 20.6693 31.1588 20.9796C31.0301 21.2899 30.8417 21.5719 30.6041 21.8093L24.1708 28.2395L14.9048 37.5034C14.7567 37.6508 14.6508 37.8351 14.5976 38.0371C14.5445 38.2392 14.5462 38.4518 14.6025 38.6529C14.6588 38.8541 14.7677 39.0367 14.918 39.1818C15.0683 39.3269 15.2546 39.4294 15.4578 39.4785C18.2036 40.1181 21.0536 40.17 23.821 39.6309C26.5883 39.0919 29.2104 37.9741 31.5155 36.3509C33.8204 34.7276 35.7562 32.6356 37.1957 30.212C38.6352 27.7883 39.5463 25.0878 39.8687 22.2875C40.1912 19.4873 39.918 16.6506 39.067 13.9631C38.2159 11.2759 36.8064 8.79877 34.9307 6.6943C33.055 4.58984 30.7556 2.90554 28.1831 1.75185C25.6107 0.598171 22.8234 0.00116677 20.004 2.32205e-07Z" fill="#1833CC"/>
<path style="mix-blend-mode:multiply" d="M20.7322 32.5306L24.1691 28.2395L4.96458 9.03914C4.8412 8.91471 4.69154 8.81943 4.52659 8.76029C4.36162 8.70115 4.18551 8.67961 4.01116 8.69727C3.83681 8.71494 3.66859 8.77134 3.51885 8.86238C3.36911 8.9534 3.24161 9.07674 3.14569 9.22338C2.08082 10.8863 1.26907 12.6982 0.737061 14.5998L20.7322 32.5306Z" fill="url(#paint0_linear)"/>
<g style="mix-blend-mode:multiply">
<path style="mix-blend-mode:multiply" d="M3.14576 9.22892C2.74027 9.85896 2.3711 10.5116 2.04004 11.1838C2.22432 10.8153 3.22685 8.92859 4.29201 9.99354C4.9149 10.6163 10.2647 15.9097 15.1649 20.7572L15.9205 20L4.96466 9.03913C4.84089 8.91499 4.69091 8.82007 4.52571 8.76137C4.36051 8.70266 4.18426 8.68163 4.00988 8.69983C3.83552 8.71802 3.6674 8.77497 3.51789 8.86652C3.36837 8.95806 3.24122 9.08189 3.14576 9.22892Z" fill="url(#paint1_linear)"/>
</g>
<defs>
<linearGradient id="paint0_linear" x1="17.286" y1="14.6512" x2="9.94028" y2="23.2001" gradientUnits="userSpaceOnUse">
<stop stop-color="#002355"/>
<stop offset="0.07" stop-color="#294670"/>
<stop offset="0.16" stop-color="#5B7191"/>
<stop offset="0.26" stop-color="#8797AF"/>
<stop offset="0.36" stop-color="#ACB7C8"/>
<stop offset="0.47" stop-color="#CAD1DC"/>
<stop offset="0.58" stop-color="#E1E6EB"/>
<stop offset="0.7" stop-color="#F2F4F6"/>
<stop offset="0.83" stop-color="#FCFCFD"/>
<stop offset="1" stop-color="white"/>
</linearGradient>
<linearGradient id="paint1_linear" x1="-1321.6" y1="-468.548" x2="1100.53" y2="1831.82" gradientUnits="userSpaceOnUse">
<stop stop-color="#002355"/>
<stop offset="0.07" stop-color="#294670"/>
<stop offset="0.16" stop-color="#5B7191"/>
<stop offset="0.26" stop-color="#8797AF"/>
<stop offset="0.36" stop-color="#ACB7C8"/>
<stop offset="0.47" stop-color="#CAD1DC"/>
<stop offset="0.58" stop-color="#E1E6EB"/>
<stop offset="0.7" stop-color="#F2F4F6"/>
<stop offset="0.83" stop-color="#FCFCFD"/>
<stop offset="1" stop-color="white"/>
</linearGradient>
</defs>
</svg>
