<?xml version="1.0" encoding="UTF-8"?>
<svg width="30px" height="29px" viewBox="0 0 30 29" version="1.1" xmlns="http://www.w3.org/2000/svg" xmlns:xlink="http://www.w3.org/1999/xlink">
    <defs>
        <linearGradient x1="-23.2907472%" y1="148.979367%" x2="127.780264%" y2="-105.523558%" id="linearGradient-1">
            <stop stop-color="#00B8D9" offset="2%"></stop>
            <stop stop-color="#1833CC" offset="100%"></stop>
        </linearGradient>
        <linearGradient x1="70.6253181%" y1="25.9825635%" x2="40.6124342%" y2="61.5182648%" id="linearGradient-2">
            <stop stop-color="#002355" offset="0%"></stop>
            <stop stop-color="#294670" offset="7%"></stop>
            <stop stop-color="#5B7191" offset="16%"></stop>
            <stop stop-color="#8797AF" offset="26%"></stop>
            <stop stop-color="#ACB7C8" offset="36%"></stop>
            <stop stop-color="#CAD1DC" offset="47%"></stop>
            <stop stop-color="#E1E6EB" offset="58%"></stop>
            <stop stop-color="#F2F4F6" offset="70%"></stop>
            <stop stop-color="#FCFCFD" offset="83%"></stop>
            <stop stop-color="#FFFFFF" offset="100%"></stop>
        </linearGradient>
        <linearGradient x1="-9535.96368%" y1="-2758.61784%" x2="7296.13525%" y2="11135.0423%" id="linearGradient-3">
            <stop stop-color="#002355" offset="0%"></stop>
            <stop stop-color="#294670" offset="7%"></stop>
            <stop stop-color="#5B7191" offset="16%"></stop>
            <stop stop-color="#8797AF" offset="26%"></stop>
            <stop stop-color="#ACB7C8" offset="36%"></stop>
            <stop stop-color="#CAD1DC" offset="47%"></stop>
            <stop stop-color="#E1E6EB" offset="58%"></stop>
            <stop stop-color="#F2F4F6" offset="70%"></stop>
            <stop stop-color="#FCFCFD" offset="83%"></stop>
            <stop stop-color="#FFFFFF" offset="100%"></stop>
        </linearGradient>
    </defs>
    <g id="Page-2" stroke="none" stroke-width="1" fill="none" fill-rule="evenodd">
        <g id="Artboard" transform="translate(-416.000000, -386.000000)">
            <g id="logo-codemonk-icon-dark" transform="translate(416.000000, 386.000000)">
                <rect id="Rectangle" fill="#FFFFFF" x="0" y="0" width="30" height="29"></rect>
                <g fill-rule="nonzero" id="Path">
                    <path d="M11.9213,14.5919 L4.11731,7.07507 C4.02947,6.98974 3.92294,6.9244 3.80552,6.88384 C3.68809,6.84328 3.56274,6.82851 3.43862,6.84062 C3.31451,6.85274 3.19477,6.89142 3.08818,6.95385 C2.98159,7.01627 2.89083,7.10086 2.82255,7.20142 C1.36029,9.4079 0.583374,11.9711 0.583374,14.5888 C0.583374,17.2065 1.36029,19.7696 2.82255,21.9761 C2.89099,22.0765 2.98181,22.1609 3.0884,22.2232 C3.19499,22.2854 3.31466,22.324 3.4387,22.3361 C3.56274,22.3483 3.68801,22.3336 3.80541,22.2931 C3.9228,22.2527 4.02935,22.1876 4.11731,22.1024 L11.9213,14.5919 Z" fill="url(#linearGradient-1)"></path>
                    <path d="M14.8229,0.876099841 C13.7339,0.876099841 12.6484,0.99635 11.588,1.23495 C11.4434,1.2687 11.3108,1.33895 11.2038,1.43847 C11.0968,1.53799 11.0193,1.66318 10.9792,1.80115 C10.9391,1.93912 10.9379,2.08488 10.9757,2.22344 C11.0136,2.362 11.0891,2.48835 11.1944,2.58947 L17.7889,8.94259 L22.3684,13.3524 C22.5375,13.5152 22.6716,13.7086 22.7632,13.9214 C22.8547,14.1342 22.9018,14.3622 22.9018,14.5925 C22.9018,14.8229 22.8547,15.0509 22.7632,15.2637 C22.6716,15.4765 22.5375,15.6699 22.3684,15.8327 L17.7889,20.2425 L11.1931,26.5956 C11.0877,26.6967 11.0123,26.8231 10.9744,26.9616 C10.9366,27.1002 10.9378,27.246 10.9779,27.3839 C11.018,27.5219 11.0955,27.6471 11.2025,27.7466 C11.3095,27.8461 11.4421,27.9164 11.5867,27.9501 C13.5413,28.3887 15.57,28.4243 17.5399,28.0546 C19.5098,27.685 21.3763,26.9184 23.0171,25.8052 C24.6578,24.692 26.0358,23.2573 27.0605,21.5952 C28.0852,19.9331 28.7337,18.0811 28.9632,16.1607 C29.1928,14.2403 28.9983,12.2949 28.3925,10.4519 C27.7867,8.609 26.7834,6.91022 25.4482,5.46699 C24.113,4.02377 22.4762,2.86869 20.645,2.0775 C18.8139,1.28632 16.8298,0.8769 14.8229,0.876099841 Z" fill="#1833CC"></path>
                    <path d="M15.3412,23.1853 L17.7877,20.2425 L4.11732,7.07507 C4.02949,6.98974 3.92296,6.9244 3.80554,6.88384 C3.68811,6.84328 3.56275,6.82851 3.43864,6.84062 C3.31453,6.85274 3.19479,6.89142 3.0882,6.95385 C2.98161,7.01627 2.89085,7.10086 2.82257,7.20142 C2.06456,8.34182 1.48673,9.5844 1.10803,10.8885 L15.3412,23.1853 Z" fill="url(#linearGradient-2)" style="mix-blend-mode: multiply;"></path>
                    <path d="M2.82261,7.20521 C2.53397,7.63729 2.27118,8.08489 2.03552,8.54583 C2.1667,8.29312 2.88033,6.99925 3.63855,7.72958 C4.08194,8.15666 7.89013,11.7868 11.3782,15.1112 L11.9161,14.5919 L4.11736,7.07506 C4.02926,6.98992 3.9225,6.92483 3.8049,6.88457 C3.68731,6.84431 3.56185,6.82989 3.43772,6.84237 C3.3136,6.85484 3.19393,6.8939 3.0875,6.95668 C2.98107,7.01946 2.89056,7.10438 2.82261,7.20521 Z" fill="url(#linearGradient-3)" style="mix-blend-mode: multiply;"></path>
                </g>
            </g>
        </g>
    </g>
</svg>