<?xml version="1.0" encoding="UTF-8"?>
<svg width="27px" height="25px" viewBox="0 0 27 25" version="1.1" xmlns="http://www.w3.org/2000/svg" xmlns:xlink="http://www.w3.org/1999/xlink">
    <g id="Talents" stroke="none" stroke-width="1" fill="none" fill-rule="evenodd">
        <g id="Onboarding---Payment-details" transform="translate(-887.000000, -773.000000)" fill="#9A97A9">
            <g id="Group-2" transform="translate(370.000000, 755.000000)">
                <g id="icon/attach" transform="translate(515.000000, 15.000000)">
                    <path d="M15,30 C10.8653571,30 7.5,26.6357143 7.5,22.5 L7.5,6.42857143 C7.5,5.83714286 7.97892857,5.35714286 8.57142857,5.35714286 C9.16392857,5.35714286 9.64285714,5.83714286 9.64285714,6.42857143 L9.64285714,22.5 C9.64285714,25.4539286 12.0460714,27.8571429 15,27.8571429 C17.9539286,27.8571429 20.3571429,25.4539286 20.3571429,22.5 L20.3571429,5.35714286 C20.3571429,3.585 18.915,2.14285714 17.1428571,2.14285714 C15.3707143,2.14285714 13.9285714,3.585 13.9285714,5.35714286 L13.9285714,22.5 C13.9285714,23.0903571 14.4085714,23.5714286 15,23.5714286 C15.5914286,23.5714286 16.0714286,23.0903571 16.0714286,22.5 L16.0714286,5.52642857 C16.0714286,4.935 16.5503571,4.455 17.1428571,4.455 C17.7353571,4.455 18.2142857,4.935 18.2142857,5.52642857 L18.2142857,22.5 C18.2142857,24.2721429 16.7721429,25.7142857 15,25.7142857 C13.2278571,25.7142857 11.7857143,24.2721429 11.7857143,22.5 L11.7857143,5.35714286 C11.7857143,2.40321429 14.1889286,-3.19744231e-14 17.1428571,-3.19744231e-14 C20.0967857,-3.19744231e-14 22.5,2.40321429 22.5,5.35714286 L22.5,22.5 C22.5,26.6357143 19.1346429,30 15,30" id="Fill-1" transform="translate(15.000000, 15.000000) rotate(-315.000000) translate(-15.000000, -15.000000) "></path>
                </g>
            </g>
        </g>
    </g>
</svg>