<?xml version="1.0" encoding="UTF-8"?>
<svg width="26px" height="16px" viewBox="0 0 26 16" version="1.1" xmlns="http://www.w3.org/2000/svg" xmlns:xlink="http://www.w3.org/1999/xlink">
    <g id="Page-1" stroke="none" stroke-width="1" fill="none" fill-rule="evenodd">
        <g id="Artboard" transform="translate(-223.000000, -132.000000)" fill="#04004E">
            <g id="behance" transform="translate(223.000000, 132.000000)">
                <path d="M7.11076389,12.989881 C7.44920635,12.989881 7.77137897,12.9598214 8.07435516,12.8919147 C8.38214286,12.8251984 8.65446429,12.7182044 8.88526786,12.5606647 C9.11493056,12.4092262 9.30605159,12.2011905 9.44434524,11.9378968 C9.58318452,11.6758433 9.64990079,11.3356151 9.64990079,10.925 C9.64990079,10.1200893 9.42266865,9.54781746 8.97247024,9.20099206 C8.5203869,8.85833333 7.91865079,8.68824405 7.17867063,8.68824405 L3.4390873,8.68824405 L3.4390873,12.989881 L7.11076389,12.989881 L7.11076389,12.989881 Z M6.92018849,6.34022817 C7.52911706,6.34022817 8.03407738,6.19593254 8.43382937,5.90262897 C8.82936508,5.61344246 9.02053571,5.13675595 9.02053571,4.48154762 C9.02053571,4.11845238 8.95744048,3.81790675 8.82936508,3.58467262 C8.69652778,3.35143849 8.5203869,3.16929563 8.29920635,3.04122024 C8.07916667,2.90838294 7.83030754,2.81701389 7.54236111,2.7671131 C7.25863095,2.71180556 6.96230159,2.69017857 6.65749008,2.69017857 L3.4390873,2.69017857 L3.4390873,6.34022817 L6.92018849,6.34022817 L6.92018849,6.34022817 Z M7.36502976,0.028968254 C8.11225198,0.028968254 8.78670635,0.0933035714 9.40287698,0.227380952 C10.0160218,0.35719246 10.5383929,0.574206349 10.9808036,0.871775794 C11.4160218,1.16934524 11.7568452,1.56488095 12.0009425,2.06319444 C12.2383929,2.55431548 12.3579861,3.16929563 12.3579861,3.89603175 C12.3579861,4.68229167 12.1800595,5.33933532 11.822371,5.86473214 C11.4628968,6.38893849 10.9345238,6.8187004 10.2294147,7.15292659 C11.1893849,7.42946429 11.9023313,7.91577381 12.3742063,8.60768849 C12.8485119,9.30436508 13.0811508,10.1375496 13.0811508,11.1149802 C13.0811508,11.9072421 12.9296627,12.5889385 12.6260913,13.162996 C12.3201389,13.7437004 11.9035218,14.2143849 11.3901786,14.5774802 C10.872619,14.9435516 10.2793155,15.2128472 9.61324405,15.3877976 C8.95500992,15.5621032 8.27152778,15.650496 7.57063492,15.650496 L0,15.650496 L0,0.028968254 L7.36502976,0.028968254 Z" id="Shape" fill-rule="nonzero"></path>
                <path d="M21.5534226,6.99484127 C21.1837302,6.58670635 20.5591766,6.36547619 19.7963294,6.36547619 C19.2998016,6.36547619 18.8892361,6.44900794 18.5598214,6.61914683 C18.2375992,6.7874504 17.9743056,6.99603175 17.7729663,7.24250992 C17.5721726,7.49260913 17.4363095,7.75709325 17.3563492,8.03963294 C17.2770337,8.31493056 17.2289187,8.56438492 17.2150794,8.78501984 L22.2693948,8.78501984 C22.1954365,7.99270833 21.9243552,7.40664683 21.5534226,6.99484127 L21.5534226,6.99484127 Z M17.9833333,12.9381944 C18.4492063,13.3926587 19.121875,13.6210813 19.993502,13.6210813 C20.6198909,13.6210813 21.1609127,13.462996 21.615377,13.1467758 C22.0655754,12.8312004 22.3397321,12.4939484 22.4454861,12.1440972 L25.1818452,12.1440972 C24.7418155,13.5056548 24.0751488,14.4776786 23.1644345,15.0631944 C22.2645833,15.650496 21.1681052,15.943254 19.8895337,15.943254 C18.9986607,15.943254 18.1967262,15.7989583 17.4765873,15.5152282 C16.7570437,15.2272817 16.1559028,14.8245536 15.649752,14.2985615 C15.1568452,13.7707341 14.7739087,13.1467758 14.5009921,12.4140377 C14.2311012,11.684871 14.0952381,10.8775298 14.0952381,10.002877 C14.0952381,9.15709325 14.2365079,8.3672123 14.5130456,7.63685516 C14.7943452,6.90406746 15.185119,6.27167659 15.6978671,5.74151786 C16.2118056,5.20828373 16.8207837,4.7875 17.5301091,4.4797123 C18.2400298,4.17375992 19.0226687,4.01989087 19.8895337,4.01989087 C20.8465278,4.01989087 21.683879,4.20381944 22.4028274,4.57891865 C23.1181548,4.94920635 23.7054563,5.45054563 24.1665179,6.078125 C24.6269841,6.70451389 24.9558036,7.42103175 25.1608135,8.22475198 C25.3639881,9.02728175 25.4355159,9.86522817 25.3771825,10.7428571 L17.2150794,10.7428571 C17.2150794,11.6373512 17.5168651,12.4837302 17.9833333,12.9381944 L17.9833333,12.9381944 Z" id="Shape" fill-rule="nonzero"></path>
                <rect id="Rectangle" x="16.5791171" y="1.07738095" width="6.33229167" height="1.54126984"></rect>
            </g>
        </g>
    </g>
</svg>