<?xml version="1.0" encoding="UTF-8"?>
<svg width="20px" height="20px" viewBox="0 0 20 20" version="1.1" xmlns="http://www.w3.org/2000/svg" xmlns:xlink="http://www.w3.org/1999/xlink">
    <g id="Client-dashboard" stroke="none" stroke-width="1" fill="none" fill-rule="evenodd">
        <g id="Client---Dashboard" transform="translate(-40.000000, -434.000000)" fill="#2E2E2E">
            <g id="icon/invoice" transform="translate(40.000000, 434.000000)">
                <path d="M14.8335469,1.46105486e-13 C15.3858316,1.46985099e-13 15.8335469,0.44771525 15.8335469,1 L15.8337321,8.14871965 C15.4048602,8.05138909 14.9585382,8 14.5002136,8 C13.7719508,8 13.0739923,8.12974802 12.4281931,8.36738903 C12.3202305,8.14979567 12.094382,8 11.8335469,8 L4.50021356,8 C4.13202373,8 3.8335469,8.29847683 3.8335469,8.66666667 C3.8335469,9.0013847 4.08022196,9.27848868 4.40169845,9.32610495 L4.50021356,9.33333333 L10.7281372,9.33375427 C10.059971,9.87455634 9.51028136,10.555962 9.12407833,11.3329611 L4.50021356,11.3333333 C4.13202373,11.3333333 3.8335469,11.6318102 3.8335469,12 C3.8335469,12.334718 4.08022196,12.611822 4.40169845,12.6594383 L4.50021356,12.6666667 L8.64893321,12.6664815 C8.55160265,13.0953533 8.50021356,13.5416754 8.50021356,14 C8.50021356,14.2252531 8.51262626,14.4476071 8.53680496,14.6664152 L4.50021356,14.6666667 C4.13202373,14.6666667 3.8335469,14.9651435 3.8335469,15.3333333 C3.8335469,15.6680514 4.08022196,15.9451553 4.40169845,15.9927716 L4.50021356,16 L8.84186745,16.0006859 C9.66573389,18.3307123 11.8880322,20 14.5002136,20 L1.50021356,20 C0.947928813,20 0.500213562,19.5522847 0.500213562,19 L0.5,5.66578644 L4.16688023,5.66666667 C5.27144973,5.66666667 6.16688023,4.77123617 6.16688023,3.66666667 L6.166,-0.000213562373 L14.8335469,1.46105486e-13 Z M14.5002136,9 C17.2627136,9 19.5002136,11.2375 19.5002136,14 C19.5002136,16.75 17.2627136,19 14.5002136,19 C11.7377136,19 9.50021356,16.75 9.50021356,14 C9.50021356,11.2375 11.7377136,9 14.5002136,9 Z M15.0250886,10.195625 L14.3350886,10.195625 L14.3350886,11.104375 C14.0750886,11.128125 13.8500886,11.194375 13.6600886,11.303125 C13.4700886,11.410625 13.3113386,11.541875 13.1838386,11.699375 C13.0563386,11.856875 12.9613386,12.036875 12.8988386,12.235625 C12.8363386,12.435625 12.8050886,12.643125 12.8050886,12.858125 C12.8050886,13.063125 12.8325886,13.244375 12.8875886,13.401875 C12.9425886,13.559375 13.0275886,13.701875 13.1425886,13.825625 C13.2575886,13.950625 13.4050886,14.061875 13.5850886,14.155625 C13.7200886,14.226875 13.8761823,14.2939062 14.0533698,14.3567187 L14.2375886,14.418125 L14.6650886,14.553125 C14.9900886,14.658125 15.1525886,14.820625 15.1525886,15.040625 C15.1525886,15.200625 15.0838386,15.330625 14.9463386,15.430625 C14.8088386,15.531875 14.6475886,15.581875 14.4625886,15.581875 C14.067033,15.581875 13.6616009,15.4179244 13.2462923,15.0900231 L13.0900886,14.959375 L12.4825886,16.090625 C12.5775886,16.180625 12.6988386,16.266875 12.8463386,16.349375 C12.9938386,16.431875 13.1525886,16.504375 13.3225886,16.568125 C13.4925886,16.629375 13.6650886,16.679375 13.8400886,16.716875 C13.9567552,16.741875 14.0689775,16.7590972 14.1767552,16.7678009 L14.3350886,16.774375 L14.3350886,17.666875 L15.0250886,17.666875 L15.0250886,16.735625 C15.3150886,16.645625 15.5613386,16.545625 15.7638386,16.435625 C15.9663386,16.325625 16.1300886,16.199375 16.2550886,16.054375 C16.3800886,15.908125 16.4700886,15.743125 16.5250886,15.558125 C16.5800886,15.374375 16.6075886,15.161875 16.6075886,14.920625 C16.6075886,14.525625 16.4975886,14.204375 16.2775886,13.958125 C16.0890171,13.7459821 15.7994253,13.5623087 15.4088131,13.4063174 L15.2050886,13.330625 L14.7625886,13.181875 C14.6075886,13.126875 14.4825886,13.053125 14.3875886,12.963125 C14.2925886,12.874375 14.2450886,12.778125 14.2450886,12.678125 C14.2450886,12.568125 14.3050886,12.469375 14.4250886,12.381875 C14.5450886,12.295625 14.7000886,12.251875 14.8900886,12.251875 C15.1558028,12.251875 15.4251906,12.3409566 15.6982518,12.5206942 L15.8350886,12.618125 L16.3900886,11.538125 C16.0729457,11.3377679 15.6933539,11.2026148 15.2513131,11.133453 L15.0250886,11.104375 L15.0250886,10.195625 Z M11.8335469,4.66666667 L8.50021356,4.66666667 C8.13202373,4.66666667 7.8335469,4.9651435 7.8335469,5.33333333 C7.8335469,5.66805136 8.08022196,5.94515534 8.40169845,5.99277162 L8.50021356,6 L11.8335469,6 C12.2017367,6 12.5002136,5.70152317 12.5002136,5.33333333 C12.5002136,4.9651435 12.2017367,4.66666667 11.8335469,4.66666667 Z M5.16688023,-1.56763356e-13 L5.16688023,3.66666667 C5.16688023,4.21895142 4.71916498,4.66666667 4.16688023,4.66666667 L0.500213562,4.66666667 L5.16688023,-1.56763356e-13 Z" id="Combined-Shape"></path>
            </g>
        </g>
    </g>
</svg>