<?xml version="1.0" encoding="UTF-8"?>
<svg width="18px" height="20px" viewBox="0 0 18 20" version="1.1" xmlns="http://www.w3.org/2000/svg" xmlns:xlink="http://www.w3.org/1999/xlink">
    <!-- Generator: Sketch 64 (93537) - https://sketch.com -->
    <title>books</title>
    <desc>Created with Sketch.</desc>
    <g id="Talent-dashboard" stroke="none" stroke-width="1" fill="none" fill-rule="evenodd">
        <g id="Dev---Dashboard-New" transform="translate(-41.000000, -508.000000)" fill="#2E2E2E">
            <g id="icon/book" transform="translate(40.000000, 508.000000)">
                <path d="M17.5625,0 C18.0820313,0 18.5,0.41796875 18.5,0.9375 L18.5,0.9375 L18.5,14.0625 C18.5,14.3554688 18.3632813,14.6210938 18.1523438,14.7890625 C17.9882813,15.390625 17.9882813,17.1054688 18.1523438,17.7070312 C18.3632813,17.8789062 18.5,18.1445312 18.5,18.4375 L18.5,18.4375 L18.5,19.0625 C18.5,19.5820312 18.0820313,20 17.5625,20 L17.5625,20 L4.75,20 C2.6796875,20 1,18.3203125 1,16.25 L1,16.25 L1,3.75 C1,1.6796875 2.6796875,0 4.75,0 L4.75,0 Z M15.8984375,15 L4.75,15 C4.0625,15 3.5,15.5625 3.5,16.25 C3.5,16.9414062 4.05859375,17.5 4.75,17.5 L4.75,17.5 L15.8984375,17.5 C15.8242187,16.8320312 15.8242187,15.6679688 15.8984375,15 L15.8984375,15 Z M14.5,7 L5.5,7 C5.22385763,7 5,7.22385763 5,7.5 C5,7.77614237 5.22385763,8 5.5,8 L5.5,8 L14.5,8 C14.7761424,8 15,7.77614237 15,7.5 C15,7.22385763 14.7761424,7 14.5,7 L14.5,7 Z M14.5,4 L5.5,4 C5.22385763,4 5,4.22385763 5,4.5 C5,4.77614237 5.22385763,5 5.5,5 L5.5,5 L14.5,5 C14.7761424,5 15,4.77614237 15,4.5 C15,4.22385763 14.7761424,4 14.5,4 L14.5,4 Z" id="Combined-Shape"></path>
            </g>
        </g>
    </g>
</svg>