<svg width="16" height="16" viewBox="0 0 16 16" fill="none" xmlns="http://www.w3.org/2000/svg">
<path d="M8.00017 11.6451V9.72412" stroke="#04004E" stroke-width="1.5" stroke-linecap="round" stroke-linejoin="round"/>
<path fill-rule="evenodd" clip-rule="evenodd" d="M12.6906 3.05379C13.9703 3.05379 15 4.0911 15 5.37072V7.97537C13.1374 9.06569 10.6766 9.72442 7.99621 9.72442C5.31585 9.72442 2.86263 9.06569 1 7.97537V5.36314C1 4.08353 2.03732 3.05379 3.31693 3.05379H12.6906Z" stroke="#04004E" stroke-width="1.5" stroke-linecap="round" stroke-linejoin="round"/>
<path d="M10.6503 3.05046V2.77334C10.6503 1.84959 9.90067 1.1 8.97692 1.1H7.02343C6.09969 1.1 5.3501 1.84959 5.3501 2.77334V3.05046" stroke="#04004E" stroke-width="1.5" stroke-linecap="round" stroke-linejoin="round"/>
<path d="M1.01855 10.7411L1.16166 12.6409C1.25858 13.9212 2.32542 14.9109 3.60882 14.9109H12.3912C13.6746 14.9109 14.7414 13.9212 14.8383 12.6409L14.9815 10.7411" stroke="#04004E" stroke-width="1.5" stroke-linecap="round" stroke-linejoin="round"/>
</svg>
