<svg width="18" height="18" viewBox="0 0 18 18" fill="none" xmlns="http://www.w3.org/2000/svg">
<path d="M5 5L10 5" stroke="#04004E" stroke-width="1.5" stroke-linecap="round"/>
<path d="M5 8H6" stroke="#04004E" stroke-width="1.5" stroke-linecap="round"/>
<path fill-rule="evenodd" clip-rule="evenodd" d="M17 12.5C17 14.9855 14.9855 17 12.5 17C10.0145 17 8 14.9855 8 12.5C8 10.0145 10.0145 8 12.5 8C14.9855 8 17 10.0145 17 12.5Z" stroke="#04004E" stroke-width="1.5" stroke-linecap="round" stroke-linejoin="round"/>
<path d="M14.1694 13.9314L12.3354 12.8373V10.4793" stroke="#04004E" stroke-width="1.5" stroke-linecap="round" stroke-linejoin="round"/>
<path d="M4.71946 15C2.42649 15 1 13.3813 1 11.0906V4.90941C1 2.6187 2.4333 1 4.71946 1H11.2798C13.5728 1 15 2.6187 15 4.90941" stroke="#04004E" stroke-width="1.5" stroke-linecap="round" stroke-linejoin="round"/>
</svg>
