<?xml version="1.0" encoding="UTF-8"?>
<svg width="11px" height="11px" viewBox="0 0 14 14" version="1.1" xmlns="http://www.w3.org/2000/svg" xmlns:xlink="http://www.w3.org/1999/xlink">
    <g id="Page-1" stroke="none" stroke-width="1" fill="none" fill-rule="evenodd">
        <g id="Artboard" fill="#04004E" fill-rule="nonzero">
            <g id="call">
                <path d="M12.8766458,9.18939583 C12.0195104,9.18939583 11.1779062,9.05533854 10.3803802,8.79178125 C9.98958333,8.65848958 9.50917187,8.78077083 9.27066146,9.02573438 L7.6965,10.2140573 C5.87092187,9.2395625 4.74640104,8.11540625 3.78521354,6.30353646 L4.93857292,4.77039063 C5.23822396,4.47114062 5.34570312,4.03400521 5.21693229,3.62384896 C4.95224479,2.82213021 4.81778646,1.98092708 4.81778646,1.12342708 C4.81782292,0.503963542 4.31385937,0 3.69443229,0 L1.12339062,0 C0.503963542,0 0,0.503963542 0,1.12339062 C0,8.22365104 5.77638542,14 12.8766458,14 C13.4960729,14 14.0000365,13.4960365 14.0000365,12.8766094 L14.0000365,10.31275 C14.0000365,9.69335938 13.4960365,9.18939583 12.8766458,9.18939583 Z" id="Path"></path>
            </g>
        </g>
    </g>
</svg>