<svg width="16" height="16" viewBox="0 0 16 16" fill="none" xmlns="http://www.w3.org/2000/svg">
<path d="M3.71558 3.55999C3.71558 2.81746 4.3172 2.21583 5.05971 2.21523H5.67144C6.02635 2.21523 6.36639 2.07434 6.61845 1.82465L7.04589 1.39661C7.56963 0.869885 8.42093 0.867507 8.94765 1.39126L8.94824 1.39185L8.95359 1.39661L9.38162 1.82465C9.63368 2.07493 9.97373 2.21523 10.3286 2.21523H10.9398C11.6823 2.21523 12.2845 2.81686 12.2845 3.55999V4.17053C12.2845 4.52545 12.4248 4.8661 12.6751 5.11816L13.1031 5.5462C13.6298 6.06995 13.6328 6.92127 13.109 7.448L13.1084 7.44859L13.1031 7.45394L12.6751 7.88198C12.4248 8.13345 12.2845 8.47351 12.2845 8.82842V9.44016C12.2845 10.1827 11.6829 10.7843 10.9404 10.7843H10.9398H10.3274C9.97254 10.7843 9.6319 10.9252 9.38043 11.1755L8.9524 11.6029C8.42926 12.1297 7.57855 12.1326 7.05183 11.6101C7.05124 11.6095 7.05064 11.6089 7.05005 11.6083L7.0447 11.6029L6.61726 11.1755C6.3658 10.9252 6.02516 10.7849 5.67025 10.7843H5.05971C4.3172 10.7843 3.71558 10.1827 3.71558 9.44016V8.82723C3.71558 8.47232 3.57469 8.13226 3.32441 7.88079L2.89698 7.45275C2.37026 6.9296 2.36729 6.07887 2.89044 5.55215C2.89044 5.55155 2.89103 5.55096 2.89163 5.55036L2.89698 5.54501L3.32441 5.11697C3.57469 4.86491 3.71558 4.52485 3.71558 4.16935V3.55999" stroke="#04004E" stroke-width="1.5" stroke-linecap="round" stroke-linejoin="round"/>
<path fill-rule="evenodd" clip-rule="evenodd" d="M10 6.50041C10 5.39539 9.10461 4.5 8.00041 4.5C6.89539 4.5 6 5.39539 6 6.50041C6 7.60461 6.89539 8.5 8.00041 8.5C9.10461 8.5 10 7.60461 10 6.50041Z" stroke="#04004E" stroke-width="1.5" stroke-linecap="round" stroke-linejoin="round"/>
<path d="M10.5 11.0569V14.7035C10.5 14.929 10.2481 15.0708 10.0442 14.9601L8.00839 13.8516L5.95484 14.9619C5.75129 15.072 5.5 14.9302 5.5 14.7051V11" stroke="#04004E" stroke-width="1.5" stroke-linecap="round" stroke-linejoin="round"/>
</svg>
