<?xml version="1.0" encoding="UTF-8"?>
<svg width="16px" height="14px" viewBox="0 0 16 14" version="1.1" xmlns="http://www.w3.org/2000/svg" xmlns:xlink="http://www.w3.org/1999/xlink">
    <!-- Generator: Sketch 64 (93537) - https://sketch.com -->
    <title>icon/talents-small</title>
    <desc>Created with Sketch.</desc>
    <defs>
        <radialGradient cx="132.340158%" cy="50%" fx="132.340158%" fy="50%" r="165.425197%" gradientTransform="translate(1.323402,0.500000),scale(0.800000,1.000000),rotate(180.000000),scale(1.000000,1.744756),translate(-1.323402,-0.500000)" id="radialGradient-1">
            <stop stop-color="#F7B299" offset="0%"></stop>
            <stop stop-color="#4C00FF" offset="100%"></stop>
        </radialGradient>
    </defs>
    <g id="Symbols" stroke="none" stroke-width="1" fill="none" fill-rule="evenodd">
        <g id="btn-dropdown/normal+icon" transform="translate(-20.000000, -13.000000)" fill="url(#radialGradient-1)">
            <g id="icon/talents-small" transform="translate(20.000000, 12.000000)">
                <path d="M11.28,9.6896 L11.996,11.3296 L12.224,10.4616 L11.996,9.8536 L12.8,9.8536 L12.572,10.4616 L12.8,11.3296 L13.516,9.6896 L13.524,9.6936 C13.556,9.7296 13.596,9.7576 13.64,9.7816 L15.26,10.7896 C15.712,11.0136 16,11.4776 16,11.9816 L16,12 L11.085,12 L11.4844444,12.2481778 C12.288,12.6464 12.8,13.4712889 12.8,14.3672889 L12.8,14.4 L0,14.4 L0,14.3672889 C0,13.4712889 0.504888889,12.6464 1.30844444,12.2481778 L4.18844444,10.4561778 C4.27377778,10.4135111 4.34488889,10.3566222 4.40177778,10.2926222 L4.40888889,10.2926222 L5.68177778,13.2081778 L6.08711111,11.6650667 L5.68177778,10.5841778 L7.11111111,10.5841778 L6.70577778,11.6650667 L7.11111111,13.2081778 L8.384,10.2926222 C8.39111111,10.2926222 8.39111111,10.2997333 8.39822222,10.2997333 C8.45511111,10.3637333 8.52622222,10.4135111 8.60444444,10.4561778 L9.33693366,10.9113696 C9.39889555,10.8654324 9.46539835,10.8245884 9.536,10.7896 L11.156,9.7816 C11.204,9.7576 11.244,9.7256 11.276,9.6896 L11.28,9.6896 Z M6.39644444,1.6 C7.86870782,1.6 9.07193123,2.74935455 9.15903932,4.19908333 L9.16408889,4.36764444 L9.16408889,5.5168 C9.16408889,6.31395556 8.92657778,7.08693333 8.49066667,7.74115556 C8.39348148,7.88622222 8.28681481,8.0256 8.17087737,8.15802469 L7.99004444,8.35128889 L7.81653333,8.5056 C7.05291852,9.18795062 5.91951056,9.22585898 5.11420857,8.6193251 L4.97564444,8.5056 L4.80284444,8.35128889 C4.61511111,8.16355556 4.44728889,7.95875556 4.30222222,7.74115556 C3.91474568,7.15962469 3.68402963,6.48426228 3.63754306,5.78149331 L3.6288,5.5168 L3.6288,4.36764444 C3.6288,2.83946667 4.86755556,1.6 6.39644444,1.6 Z M12.398,4.8 C13.2102222,4.8 13.8768741,5.42188519 13.9484396,6.21512874 L13.9548,6.3568 L13.9548,7.0032 C13.9548,7.4516 13.8212,7.8864 13.576,8.2544 C13.5213333,8.336 13.4613333,8.4144 13.3961185,8.48888889 L13.2944,8.5976 L13.1968,8.6844 C12.7769846,9.05953846 12.1584663,9.08839527 11.7077666,8.77097041 L11.5988,8.6844 L11.5016,8.5976 C11.396,8.492 11.3016,8.3768 11.22,8.2544 C11.0098286,7.93897143 10.881649,7.57446531 10.8493155,7.19438367 L10.8412,7.0032 L10.8412,6.3568 C10.8412,5.4972 11.538,4.8 12.398,4.8 Z" id="Combined-Shape"></path>
            </g>
        </g>
    </g>
</svg>