<svg width="18" height="18" viewBox="0 0 18 18" fill="none" xmlns="http://www.w3.org/2000/svg">
<path fill-rule="evenodd" clip-rule="evenodd" d="M6.92384 11.7524C10.1178 11.7524 12.8477 12.2364 12.8477 14.1698C12.8477 16.1031 10.136 16.6009 6.92384 16.6009C3.72902 16.6009 1 16.1213 1 14.1871C1 12.2529 3.71084 11.7524 6.92384 11.7524Z" stroke="#04004E" stroke-width="1.5" stroke-linecap="round" stroke-linejoin="round"/>
<path fill-rule="evenodd" clip-rule="evenodd" d="M6.92383 8.99311C4.82685 8.99311 3.1264 7.29354 3.1264 5.19656C3.1264 3.09958 4.82685 1.4 6.92383 1.4C9.01994 1.4 10.7204 3.09958 10.7204 5.19656C10.7282 7.28575 9.03986 8.98532 6.95067 8.99311H6.92383Z" stroke="#04004E" stroke-width="1.5" stroke-linecap="round" stroke-linejoin="round"/>
<path d="M12.8907 8.00765C14.2768 7.81285 15.3443 6.62323 15.3469 5.1834C15.3469 3.76434 14.3123 2.58685 12.9556 2.36433" stroke="#04004E" stroke-width="1.5" stroke-linecap="round" stroke-linejoin="round"/>
<path d="M14.7195 11.3415C16.0623 11.5415 17 12.0125 17 12.9822C17 13.6498 16.5585 14.0827 15.845 14.3537" stroke="#04004E" stroke-width="1.5" stroke-linecap="round" stroke-linejoin="round"/>
</svg>
