<svg width="20" height="21" viewBox="0 0 20 21" fill="none" xmlns="http://www.w3.org/2000/svg">
<path d="M7.30158 19C8.1389 19.3229 9.04876 19.5 10 19.5C10.9512 19.5 11.8611 19.3229 12.6984 19M2.5 11C2.5 8.54604 3.67828 6.36752 5.5 4.99927M17.5 11C17.5 8.54604 16.3217 6.36752 14.5 4.99927" stroke="#04004E" stroke-width="1.5" stroke-linecap="round" stroke-linejoin="round"/>
<path fill-rule="evenodd" clip-rule="evenodd" d="M1.25 15.5C1.25 14.1192 2.36919 13 3.75 13C5.13081 13 6.25 14.1192 6.25 15.5C6.25 16.8808 5.13081 18 3.75 18C2.36919 18 1.25 16.8808 1.25 15.5Z" stroke="#04004E" stroke-width="1.5" stroke-linecap="round" stroke-linejoin="round"/>
<path fill-rule="evenodd" clip-rule="evenodd" d="M13.75 15.5C13.75 14.1192 14.8692 13 16.25 13C17.6308 13 18.75 14.1192 18.75 15.5C18.75 16.8808 17.6308 18 16.25 18C14.8692 18 13.75 16.8808 13.75 15.5Z" stroke="#04004E" stroke-width="1.5" stroke-linecap="round" stroke-linejoin="round"/>
<path fill-rule="evenodd" clip-rule="evenodd" d="M10 1C11.3808 1 12.5 2.11919 12.5 3.5C12.5 4.88081 11.3808 6 10 6C8.61919 6 7.5 4.88081 7.5 3.5C7.5 2.11919 8.61919 1 10 1Z" stroke="#04004E" stroke-width="1.5" stroke-linecap="round" stroke-linejoin="round"/>
</svg>
