<?xml version="1.0" encoding="UTF-8"?>
<svg width="20px" height="20px" viewBox="0 0 20 20" version="1.1" xmlns="http://www.w3.org/2000/svg" xmlns:xlink="http://www.w3.org/1999/xlink">
    <title>icon/contract</title>
    <g id="icon/contract" stroke="none" stroke-width="1" fill="none" fill-rule="evenodd">
        <path d="M14.3333832,0.000213482787 C14.8856679,0.000213482787 15.3333832,0.447928733 15.3333832,1.00021348 L15.333,7.00899992 L11.6013399,13.4737479 L11.4037198,16.7789939 C11.2977852,16.7080799 11.1703925,16.6667235 11.0333405,16.6667235 L8.36665955,16.6667235 C7.99847365,16.6667235 7.7,16.9651972 7.7,17.3333831 C7.7,17.6680975 7.94667244,17.9451986 8.26814549,17.9928143 L8.36665955,18.0000426 L11.0333405,18.0000426 C11.1419186,18.0000426 11.2444341,17.9740855 11.3350201,17.9280382 L11.3333908,17.9378495 L15.0654416,15.4737479 L15.333,15.0089999 L15.3333832,18.9999999 C15.3333832,19.5522847 14.8856679,19.9999999 14.3333832,19.9999999 L1.00021359,19.9999999 C0.447928845,19.9999999 0.000213594616,19.5522847 0.000213594616,18.9999999 L3.45307276e-08,5.66599992 L3.66684111,5.66681964 C4.77139881,5.66681964 5.66681975,4.7713987 5.66681975,3.666841 L5.66600003,-7.73058613e-08 L14.3333832,0.000213482787 Z M7.66685176,11.3334259 L4.00017086,11.3334259 C3.63198495,11.3334259 3.33351131,11.6318995 3.33351131,12.0000854 C3.33351131,12.3347999 3.58018374,12.6119009 3.90165679,12.6595167 L4.00017086,12.666745 L7.66685176,12.666745 C8.03503766,12.666745 8.33351131,12.3682713 8.33351131,12.0000854 C8.33351131,11.6318995 8.03503766,11.3334259 7.66685176,11.3334259 Z M11.3334259,8.00012806 L4.00017088,8.00012806 C3.63198498,8.00012806 3.33351133,8.29860171 3.33351133,8.66678761 C3.33351133,9.00150206 3.58018377,9.27860308 3.90165682,9.32621885 L4.00017088,9.33344715 L11.3334259,9.33344715 C11.7016118,9.33344715 12.0000855,9.03497351 12.0000855,8.66678761 C12.0000855,8.29860171 11.7016118,8.00012806 11.3334259,8.00012806 Z M11.3334259,4.66683032 L8.00012817,4.66683032 C7.63194227,4.66683032 7.33346862,4.96530397 7.33346862,5.33348987 C7.33346862,5.66820432 7.58014106,5.94530534 7.90161411,5.99292111 L8.00012817,6.00014941 L11.3334259,6.00014941 C11.7016118,6.00014941 12.0000855,5.70167577 12.0000855,5.33348987 C12.0000855,4.96530397 11.7016118,4.66683032 11.3334259,4.66683032 Z M4.66683043,0.000213482787 L4.66683043,3.666841 C4.66683043,4.21911985 4.21911996,4.66683032 3.66684111,4.66683032 L0.000213594623,4.66683032 L4.66683043,0.000213482787 Z" id="Combined-Shape" fill="#2E2E2E"></path>
        <path d="M16.5782966,6.86951747 C16.7315852,6.68868571 16.9968205,6.63758157 17.209395,6.76031151 L17.209395,6.76031151 L18.0754204,7.26031151 L18.1492272,7.31222574 L18.210872,7.37463498 C18.3401188,7.53100038 18.3658218,7.75732153 18.2584331,7.94332422 L18.2584331,7.94332422 L14.3166882,14.7689934 L12.4520288,16.0006781 L12.5856374,13.7672613 L16.5263823,6.94332422 Z M18.2792585,3.83361908 C18.4325471,3.65278733 18.6977824,3.60168318 18.9103569,3.72441313 L18.9103569,3.72441313 L19.7763823,4.22441313 L19.8501891,4.27632736 C20.0310208,4.42961598 20.082125,4.69485133 19.959395,4.90742583 L19.959395,4.90742583 L19.459395,5.77345123 L19.4074808,5.84725798 C19.2541922,6.02808974 18.9889568,6.07919388 18.7763823,5.95646394 L18.7763823,5.95646394 L17.9103569,5.45646394 L17.8365502,5.40454971 C17.6557184,5.25126109 17.6046143,4.98602573 17.7273442,4.77345123 L17.7273442,4.77345123 L18.2273442,3.90742583 Z" id="Combined-Shape" fill="#2E2E2E"></path>
    </g>
</svg>