<svg width="16" height="16" viewBox="0 0 16 16" fill="none" xmlns="http://www.w3.org/2000/svg">
<path d="M4.14928 3.45998C2.8188 3.45486 1.72884 4.51476 1.69686 5.84524V12.7132C1.66807 14.0577 2.73501 15.1707 4.07892 15.1995C4.10258 15.1995 4.12625 15.2001 4.14928 15.1995H9.25881C10.5957 15.1522 11.6524 14.0507 11.6447 12.7132" stroke="white" stroke-width="1.5" stroke-linecap="round" stroke-linejoin="round"/>
<path fill-rule="evenodd" clip-rule="evenodd" d="M11.0566 0.807147H6.80162C5.47115 0.80203 4.38118 1.86193 4.3492 3.1924V10.0603C4.32042 11.4049 5.38735 12.5179 6.73126 12.5467C6.75493 12.5467 6.77859 12.5473 6.80162 12.5467H11.9112C13.248 12.4993 14.3047 11.3978 14.297 10.0603V4.18194L11.0566 0.807147Z" stroke="white" stroke-width="1.5" stroke-linecap="round" stroke-linejoin="round"/>
<path d="M10.8896 0.799805V2.66055C10.8896 3.56885 11.6246 4.30509 12.5329 4.30765H14.2945" stroke="white" stroke-width="1.5" stroke-linecap="round" stroke-linejoin="round"/>
</svg>
