<svg width="16" height="16" viewBox="0 0 16 16" fill="none" xmlns="http://www.w3.org/2000/svg">
<path d="M13.5577 6.01528C13.5577 6.01528 13.1321 11.2943 12.8852 13.518C12.7676 14.58 12.1116 15.2024 11.0369 15.222C8.99197 15.2588 6.94464 15.2612 4.90045 15.2181C3.8666 15.1969 3.22152 14.5667 3.1063 13.5234C2.85783 11.2802 2.43457 6.01528 2.43457 6.01528" stroke="#04004E" stroke-width="1.5" stroke-linecap="round" stroke-linejoin="round"/>
<path d="M14.6419 3.48473H1.34998" stroke="#04004E" stroke-width="1.5" stroke-linecap="round" stroke-linejoin="round"/>
<path d="M12.0807 3.48473C11.4654 3.48473 10.9356 3.04971 10.8149 2.44696L10.6244 1.49384C10.5068 1.05412 10.1086 0.75 9.65481 0.75H6.33692C5.88309 0.75 5.48491 1.05412 5.36734 1.49384L5.17687 2.44696C5.05617 3.04971 4.52631 3.48473 3.91101 3.48473" stroke="#04004E" stroke-width="1.5" stroke-linecap="round" stroke-linejoin="round"/>
</svg>
