<svg width="16" height="16" viewBox="0 0 16 16" fill="none" xmlns="http://www.w3.org/2000/svg">
<path d="M1.30538 6.21556L6.34939 13.5876C7.14365 14.7484 8.85635 14.7484 9.65061 13.5876L14.6946 6.21556C15.1765 5.51121 15.1584 4.57864 14.6495 3.89354L13.0997 1.80735C12.7224 1.29942 12.127 1 11.4943 1H4.50574C3.873 1 3.27757 1.29942 2.90025 1.80735L1.35051 3.89354C0.84158 4.57864 0.823456 5.51121 1.30538 6.21556Z" stroke="#04004E" stroke-width="1.5"/>
<path d="M9.01494 1L10.8602 4.30415C11.0081 4.55911 11.041 4.88769 10.9477 5.17857L8 14L5.05228 5.17857C4.95905 4.88769 4.99194 4.55911 5.13981 4.30415L6.98506 1" stroke="#04004E" stroke-width="1.5" stroke-linecap="round" stroke-linejoin="round"/>
<path d="M1 5H15" stroke="#04004E" stroke-width="1.5" stroke-linecap="round"/>
</svg>
