<svg width="18" height="19" viewBox="0 0 18 19" fill="none" xmlns="http://www.w3.org/2000/svg">
<path d="M5.26558 7.19495L4.66886 6.74061L4.66886 6.74061L5.26558 7.19495ZM3.41937 9.61969L4.01609 10.074H4.01609L3.41937 9.61969ZM2.36392 12.4403L1.61552 12.3913L2.36392 12.4403ZM5.08253 2.43976L5.64255 1.94089V1.94089L5.08253 2.43976ZM5.35832 1.66373L5.24512 0.922321L5.35832 1.66373ZM12.7344 7.19495L13.3311 6.74061L12.7344 7.19495ZM14.5806 9.61969L13.9839 10.074L14.5806 9.61969ZM15.636 12.4403L14.8876 12.4893L15.636 12.4403ZM12.9174 2.43976L13.4775 2.93863V2.93863L12.9174 2.43976ZM12.6416 1.66373L12.7548 0.922321L12.6416 1.66373ZM12.1971 1.83012L12.6183 2.45069V2.45069L12.1971 1.83012ZM5.80288 1.83012L6.22407 1.20955L6.22407 1.20955L5.80288 1.83012ZM6.49998 4.25C6.08577 4.25 5.74998 4.58579 5.74998 5C5.74998 5.41421 6.08577 5.75 6.49998 5.75V4.25ZM11.5 5.75C11.9142 5.75 12.25 5.41421 12.25 5C12.25 4.58579 11.9142 4.25 11.5 4.25V5.75ZM9.74888 10.0837C9.74888 10.4979 10.0847 10.8337 10.4989 10.8337C10.9131 10.8337 11.2489 10.4979 11.2489 10.0837H9.74888ZM9.74996 8.87047L10.0643 8.1895L9.74996 8.87047ZM7.58013 10.4615L6.8747 10.7162L7.58013 10.4615ZM10.4989 12.9435L9.74935 12.9169L10.4989 12.9435ZM8.24998 12.6455C8.24998 12.2313 7.91419 11.8955 7.49998 11.8955C7.08577 11.8955 6.74998 12.2313 6.74998 12.6455H8.24998ZM8.24998 8.7C8.24998 9.11421 8.58577 9.45 8.99998 9.45C9.41419 9.45 9.74998 9.11421 9.74998 8.7H8.24998ZM9.74998 8C9.74998 7.58579 9.41419 7.25 8.99998 7.25C8.58577 7.25 8.24998 7.58579 8.24998 8H9.74998ZM8.24998 15C8.24998 15.4142 8.58577 15.75 8.99998 15.75C9.41419 15.75 9.74998 15.4142 9.74998 15H8.24998ZM9.74998 14.3C9.74998 13.8858 9.41419 13.55 8.99998 13.55C8.58577 13.55 8.24998 13.8858 8.24998 14.3H9.74998ZM4.66886 6.74061L2.82265 9.16535L4.01609 10.074L5.8623 7.64929L4.66886 6.74061ZM1.61552 12.3913C1.49677 14.2054 2.46024 15.8076 3.7786 16.9217C5.09793 18.0367 6.86681 18.75 8.57157 18.75V17.25C7.25993 17.25 5.82647 16.6885 4.74681 15.776C3.66618 14.8628 3.03404 13.6851 3.11232 12.4893L1.61552 12.3913ZM2.82265 9.16535C2.11201 10.0987 1.69215 11.2207 1.61552 12.3913L3.11232 12.4893C3.16969 11.6129 3.48403 10.7728 4.01609 10.074L2.82265 9.16535ZM4.5225 2.93863C5.47479 4.00766 5.53615 5.60154 4.66886 6.74061L5.8623 7.64929C7.16447 5.93906 7.07235 3.54595 5.64255 1.94089L4.5225 2.93863ZM5.24512 0.922321C4.78963 0.991871 4.44855 1.30832 4.29947 1.67893C4.14164 2.0713 4.18448 2.55918 4.5225 2.93863L5.64255 1.94089C5.67038 1.97213 5.6979 2.02246 5.70761 2.08561C5.71678 2.14522 5.70743 2.19812 5.6911 2.23872C5.66292 2.30878 5.59283 2.38661 5.47153 2.40513L5.24512 0.922321ZM12.1377 7.64929L13.9839 10.074L15.1773 9.16535L13.3311 6.74061L12.1377 7.64929ZM14.8876 12.4893C14.9659 13.6851 14.3338 14.8628 13.2532 15.776C12.1735 16.6885 10.74 17.25 9.42839 17.25V18.75C11.1332 18.75 12.902 18.0367 14.2214 16.9217C15.5397 15.8076 16.5032 14.2054 16.3844 12.3913L14.8876 12.4893ZM13.9839 10.074C14.5159 10.7728 14.8303 11.6129 14.8876 12.4893L16.3844 12.3913C16.3078 11.2207 15.888 10.0987 15.1773 9.16535L13.9839 10.074ZM12.3574 1.94089C10.9276 3.54595 10.8355 5.93906 12.1377 7.64929L13.3311 6.74061C12.4638 5.60154 12.5252 4.00766 13.4775 2.93863L12.3574 1.94089ZM12.5284 2.40513C12.4071 2.38661 12.337 2.30877 12.3089 2.23872C12.2925 2.19812 12.2832 2.14522 12.2923 2.08561C12.3021 2.02246 12.3296 1.97213 12.3574 1.94089L13.4775 2.93863C13.8155 2.55918 13.8583 2.0713 13.7005 1.67893C13.5514 1.30832 13.2103 0.991871 12.7548 0.922321L12.5284 2.40513ZM8.57157 18.75H9.42839V17.25H8.57157V18.75ZM12.6183 2.45069C12.6534 2.42687 12.675 2.41239 12.6944 2.40045C12.7129 2.38903 12.719 2.38648 12.7163 2.38767C12.7116 2.3898 12.6384 2.42193 12.5284 2.40513L12.7548 0.922321C12.4835 0.880891 12.2556 0.950385 12.1026 1.01896C11.9587 1.08349 11.8346 1.16974 11.7759 1.20955L12.6183 2.45069ZM6.22407 1.20955C6.16541 1.16974 6.04123 1.08349 5.89732 1.01896C5.74439 0.950385 5.51644 0.880891 5.24512 0.922321L5.47153 2.40513C5.36156 2.42193 5.28837 2.3898 5.28361 2.38767C5.28097 2.38648 5.28708 2.38903 5.30561 2.40045C5.32499 2.41239 5.3466 2.42687 5.3817 2.45069L6.22407 1.20955ZM5.3817 2.45069C7.56609 3.93324 10.4339 3.93324 12.6183 2.45069L11.7759 1.20955C10.1 2.34695 7.89991 2.34695 6.22407 1.20955L5.3817 2.45069ZM6.49998 5.75H11.5V4.25H6.49998V5.75ZM11.2489 10.0837C11.2489 9.73192 11.1238 8.67852 10.0643 8.1895L9.43565 9.55143C9.57081 9.61381 9.64115 9.70398 9.68612 9.80387C9.73736 9.91769 9.74888 10.0348 9.74888 10.0837H11.2489ZM10.0643 8.1895C9.16972 7.77662 8.22945 7.92542 7.5767 8.42241C6.92273 8.92031 6.54254 9.79629 6.8747 10.7162L8.28555 10.2068C8.20844 9.99324 8.27245 9.77797 8.48536 9.61586C8.69948 9.45284 9.04877 9.37286 9.43565 9.55143L10.0643 8.1895ZM6.8747 10.7162C7.07393 11.268 7.51881 11.5704 7.88128 11.7522C8.22406 11.9241 8.67145 12.0678 8.95014 12.1735C9.28401 12.3002 9.48875 12.4069 9.61088 12.5226C9.69444 12.6017 9.75715 12.6968 9.74935 12.9169L11.2484 12.9701C11.2716 12.3165 11.0361 11.8062 10.6421 11.4333C10.2867 11.0968 9.83466 10.9048 9.48226 10.7711C9.07468 10.6164 8.80636 10.5381 8.55382 10.4114C8.32098 10.2946 8.29095 10.2218 8.28555 10.2068L6.8747 10.7162ZM9.74935 12.9169C9.73654 13.2783 9.43406 13.5557 8.98586 13.5499C8.78011 13.5473 8.60467 13.4759 8.48473 13.3584C8.37338 13.2493 8.24998 13.042 8.24998 12.6455H6.74998C6.74998 13.3824 6.9937 13.9975 7.43497 14.4299C7.86765 14.8538 8.43032 15.0429 8.96655 15.0498C10.0023 15.0631 11.1993 14.3561 11.2484 12.9701L9.74935 12.9169ZM9.74998 8.7V8H8.24998V8.7H9.74998ZM9.74998 15V14.3H8.24998V15H9.74998Z" fill="#04004E"/>
</svg>
