<svg width="40" height="40" viewBox="0 0 40 40" fill="none" xmlns="http://www.w3.org/2000/svg">
<rect width="40" height="40" rx="10" fill="#1833CC"/>
<path d="M15.8504 16.8833L15.2537 16.429H15.2537L15.8504 16.8833ZM13.799 19.5775L14.3957 20.0318H14.3957L13.799 19.5775ZM12.6263 22.7115L11.8779 22.6625L12.6263 22.7115ZM15.647 11.5998L16.207 11.1009V11.1009L15.647 11.5998ZM15.9534 10.7375L15.8402 9.99611L15.9534 10.7375ZM24.149 16.8833L24.7458 16.429L24.149 16.8833ZM26.2004 19.5775L25.6037 20.0318L26.2004 19.5775ZM27.3731 22.7115L26.6247 22.7605V22.7605L27.3731 22.7115ZM24.3524 11.5998L24.9125 12.0986V12.0986L24.3524 11.5998ZM24.046 10.7375L24.1592 9.99611L24.046 10.7375ZM23.552 10.9224L23.9732 11.543L23.9732 11.543L23.552 10.9224ZM16.4474 10.9224L16.8686 10.3018V10.3018L16.4474 10.9224ZM17.2219 13.6945C16.8077 13.6945 16.4719 14.0303 16.4719 14.4445C16.4719 14.8587 16.8077 15.1945 17.2219 15.1945V13.6945ZM22.7775 15.1945C23.1917 15.1945 23.5275 14.8587 23.5275 14.4445C23.5275 14.0303 23.1917 13.6945 22.7775 13.6945V15.1945ZM20.9151 20.093C20.9151 20.5072 21.2509 20.843 21.6651 20.843C22.0794 20.843 22.4151 20.5072 22.4151 20.093H20.9151ZM20.833 18.745L21.1473 18.064L20.833 18.745ZM18.4221 20.5128L17.7167 20.7675L18.4221 20.5128ZM21.6651 23.2706L20.9156 23.244L21.6651 23.2706ZM19.083 22.9394C19.083 22.5252 18.7473 22.1894 18.333 22.1894C17.9188 22.1894 17.583 22.5252 17.583 22.9394H19.083ZM19.2497 18.5556C19.2497 18.9698 19.5855 19.3056 19.9997 19.3056C20.4139 19.3056 20.7497 18.9698 20.7497 18.5556H19.2497ZM20.7497 17.7778C20.7497 17.3636 20.4139 17.0278 19.9997 17.0278C19.5855 17.0278 19.2497 17.3636 19.2497 17.7778H20.7497ZM19.2497 25.5556C19.2497 25.9698 19.5855 26.3056 19.9997 26.3056C20.4139 26.3056 20.7497 25.9698 20.7497 25.5556H19.2497ZM20.7497 24.7778C20.7497 24.3636 20.4139 24.0278 19.9997 24.0278C19.5855 24.0278 19.2497 24.3636 19.2497 24.7778H20.7497ZM15.2537 16.429L13.2023 19.1231L14.3957 20.0318L16.4471 17.3377L15.2537 16.429ZM11.8779 22.6625C11.7482 24.6438 12.8003 26.4004 14.252 27.6272C15.7046 28.8548 17.6514 29.6389 19.5237 29.6389V28.1389C18.0445 28.1389 16.4331 27.5066 15.2202 26.4815C14.0063 25.4557 13.2855 24.1235 13.3747 22.7605L11.8779 22.6625ZM13.2023 19.1231C12.4226 20.1471 11.962 21.3782 11.8779 22.6625L13.3747 22.7605C13.4395 21.7703 13.7947 20.8213 14.3957 20.0318L13.2023 19.1231ZM15.087 12.0986C16.1716 13.3162 16.2415 15.1316 15.2537 16.429L16.4471 17.3377C17.8698 15.4691 17.7691 12.8545 16.207 11.1009L15.087 12.0986ZM15.8402 9.99611C15.3662 10.0685 15.01 10.3982 14.8542 10.7855C14.6897 11.1946 14.7341 11.7026 15.087 12.0986L16.207 11.1009C16.2274 11.1238 16.2509 11.165 16.2592 11.2189C16.2669 11.2693 16.2588 11.313 16.2459 11.3453C16.2244 11.3986 16.1694 11.4632 16.0666 11.4789L15.8402 9.99611ZM23.5523 17.3377L25.6037 20.0318L26.7971 19.1231L24.7458 16.429L23.5523 17.3377ZM26.6247 22.7605C26.7139 24.1235 25.9931 25.4557 24.7792 26.4815C23.5663 27.5066 21.9549 28.1389 20.4757 28.1389V29.6389C22.3481 29.6389 24.2948 28.8548 25.7474 27.6272C27.1991 26.4004 28.2512 24.6438 28.1215 22.6625L26.6247 22.7605ZM25.6037 20.0318C26.2048 20.8213 26.5599 21.7703 26.6247 22.7605L28.1215 22.6625C28.0374 21.3782 27.5768 20.1471 26.7971 19.1231L25.6037 20.0318ZM23.7924 11.1009C22.2303 12.8545 22.1296 15.4691 23.5523 17.3377L24.7458 16.429C23.7579 15.1316 23.8278 13.3162 24.9125 12.0986L23.7924 11.1009ZM23.9328 11.4789C23.8301 11.4632 23.775 11.3986 23.7536 11.3453C23.7406 11.313 23.7325 11.2693 23.7403 11.2189C23.7486 11.165 23.772 11.1238 23.7924 11.1009L24.9125 12.0986C25.2653 11.7026 25.3097 11.1946 25.1452 10.7855C24.9894 10.3982 24.6332 10.0685 24.1592 9.99611L23.9328 11.4789ZM19.5237 29.6389H20.4757V28.1389H19.5237V29.6389ZM23.9732 11.543C24.0121 11.5166 24.0375 11.4995 24.0608 11.4852C24.0833 11.4713 24.0934 11.4665 24.0949 11.4658C24.0961 11.4653 24.0811 11.4723 24.053 11.4776C24.0231 11.4832 23.9813 11.4863 23.9328 11.4789L24.1592 9.99611C23.8789 9.95331 23.6424 10.0249 23.4812 10.0971C23.3291 10.1654 23.197 10.2569 23.1309 10.3018L23.9732 11.543ZM16.8686 10.3018C16.8024 10.2569 16.6704 10.1654 16.5182 10.0971C16.357 10.0249 16.1205 9.95331 15.8402 9.99611L16.0666 11.4789C16.0181 11.4863 15.9763 11.4832 15.9464 11.4776C15.9183 11.4723 15.9034 11.4653 15.9045 11.4658C15.906 11.4665 15.9161 11.4713 15.9386 11.4852C15.9619 11.4995 15.9873 11.5166 16.0262 11.543L16.8686 10.3018ZM16.0262 11.543C18.425 13.1711 21.5744 13.1711 23.9732 11.543L23.1309 10.3018C21.2405 11.5848 18.7589 11.5848 16.8686 10.3018L16.0262 11.543ZM17.2219 15.1945H22.7775V13.6945H17.2219V15.1945ZM22.4151 20.093C22.4151 19.7133 22.2796 18.5866 21.1473 18.064L20.5187 19.426C20.6902 19.5051 20.7814 19.622 20.8381 19.7479C20.901 19.8877 20.9151 20.0301 20.9151 20.093H22.4151ZM21.1473 18.064C20.1816 17.6183 19.1697 17.7798 18.4688 18.3135C17.7666 18.848 17.3618 19.7846 17.7167 20.7675L19.1275 20.2581C19.0277 19.9816 19.1164 19.7057 19.3774 19.5069C19.6397 19.3072 20.0606 19.2145 20.5187 19.426L21.1473 18.064ZM17.7167 20.7675C17.9273 21.3508 18.3985 21.674 18.7941 21.8724C19.1699 22.0609 19.6571 22.2169 19.9739 22.3372C20.3459 22.4783 20.5871 22.6016 20.7358 22.7424C20.8459 22.8466 20.9251 22.9754 20.9156 23.244L22.4147 23.2972C22.4396 22.5951 22.1875 22.0512 21.767 21.6531C21.3851 21.2915 20.8965 21.0829 20.506 20.9347C20.0603 20.7656 19.7522 20.6749 19.4666 20.5316C19.2007 20.3983 19.1443 20.3046 19.1275 20.2581L17.7167 20.7675ZM20.9156 23.244C20.8994 23.7024 20.5136 24.0346 19.9829 24.0277C19.736 24.0245 19.5195 23.9387 19.3689 23.7911C19.2268 23.652 19.083 23.399 19.083 22.9394H17.583C17.583 23.7393 17.8472 24.4002 18.3191 24.8626C18.7825 25.3166 19.3862 25.5202 19.9636 25.5276C21.0818 25.542 22.3621 24.7803 22.4147 23.2972L20.9156 23.244ZM20.7497 18.5556V17.7778H19.2497V18.5556H20.7497ZM20.7497 25.5556V24.7778H19.2497V25.5556H20.7497Z" fill="white"/>
</svg>
