<svg width="16" height="16" viewBox="0 0 16 16" fill="none" xmlns="http://www.w3.org/2000/svg">
<path d="M8 15.5C12.1421 15.5 15.5 12.1421 15.5 8C15.5 3.85786 12.1421 0.5 8 0.5M8 15.5C3.85786 15.5 0.5 12.1421 0.5 8C0.5 3.85786 3.85786 0.5 8 0.5M8 15.5V0.5M10.1429 1.03571C11.7599 3.52296 13.8929 9.07143 10.1429 14.9643M5.85714 1.03571C4.24009 3.52296 2.10714 8.53571 5.85714 14.9643M1.57143 4.78571C3.86735 5.59424 9.07143 6.92857 14.4286 4.78571M1.57143 11.2143C3.86735 10.4058 8.53571 9.07143 14.4286 11.2143" stroke="#04004E" stroke-linecap="round"/>
</svg>
