<svg width="17" height="16" viewBox="0 0 17 16" fill="none" xmlns="http://www.w3.org/2000/svg">
<path d="M7.49928 1H4.71951C2.43338 1 1 2.61842 1 4.90962V11.0904C1 13.3816 2.42669 15 4.71951 15H11.2798C13.5733 15 15 13.3816 15 11.0904V8.0959M10.3298 2.17314L13.8382 5.68161M5.46016 7.02814L11.2023 1.28595C11.9177 0.571349 13.0772 0.571349 13.7926 1.28595L14.7277 2.22108C15.4431 2.93646 15.4431 4.09673 14.7277 4.81133L8.95787 10.5812C8.64514 10.8939 8.22099 11.0699 7.77839 11.0699H4.9L4.97223 8.16536C4.98299 7.73813 5.15741 7.33088 5.46016 7.02814Z" stroke="#04004E" stroke-width="1.5" stroke-linecap="round" stroke-linejoin="round"/>
</svg>
