<?xml version="1.0" encoding="UTF-8"?>
<svg width="18px" height="18px" viewBox="0 0 18 18" version="1.1" xmlns="http://www.w3.org/2000/svg" xmlns:xlink="http://www.w3.org/1999/xlink">
    <g id="Talents" stroke="none" stroke-width="1" fill="none" fill-rule="evenodd">
        <g id="Dev---My-profile-view-&amp;-edit" transform="translate(-1218.000000, -189.000000)" fill="#9A97A9">
            <g id="icon/edit" transform="translate(1218.000000, 189.000000)">
                <path d="M4.99949494,6 C4.99949494,5.44771525 5.44721019,5 5.99949494,5 L9.99949494,5 C10.5517797,5 10.9994949,5.44771525 10.9994949,6 L10.9994949,17 L7.99949494,21 L4.99949494,17 L4.99949494,6 Z M9.99949494,-1 C10.5517797,-1 10.9994949,-0.55228475 10.9994949,3.01980663e-14 L10.9994949,2 C10.9994949,2.55228475 10.5517797,3 9.99949494,3 L5.99949494,3 C5.44721019,3 4.99949494,2.55228475 4.99949494,2 L4.99949494,3.01980663e-14 C4.99949494,-0.55228475 5.44721019,-1 5.99949494,-1 L9.99949494,-1 Z" id="Combined-Shape" transform="translate(7.999495, 10.000000) rotate(-315.000000) translate(-7.999495, -10.000000) "></path>
            </g>
        </g>
    </g>
</svg>