<?xml version="1.0" encoding="UTF-8"?>
<svg width="18px" height="18px" viewBox="0 0 18 18" version="1.1" xmlns="http://www.w3.org/2000/svg" xmlns:xlink="http://www.w3.org/1999/xlink">
    <title>icon/payment copy 5</title>
    <g id="Landing-pages-for-Roles" stroke="none" stroke-width="1" fill="none" fill-rule="evenodd">
        <g id="Product-manager---Landing-page" transform="translate(-129.000000, -3562.000000)" fill="#4C00FF">
            <g id="icon/expert-level" transform="translate(129.000000, 3562.000000)">
                <path d="M14.5,11.5 L15.5286242,13.5842203 L17.8286978,13.9184405 L16.1643489,15.5407797 L16.5572484,17.8315595 L14.5,16.75 L12.4427516,17.8315595 L12.8356511,15.5407797 L11.1713022,13.9184405 L13.4713758,13.5842203 L14.5,11.5 Z M3.5,11.5 L4.52862419,13.5842203 L6.82869781,13.9184405 L5.1643489,15.5407797 L5.55724838,17.8315595 L3.5,16.75 L1.44275162,17.8315595 L1.8356511,15.5407797 L0.171302193,13.9184405 L2.47137581,13.5842203 L3.5,11.5 Z M9,0 L10.7633558,3.57294902 L14.7063391,4.14589803 L11.8531695,6.92705098 L12.5267115,10.854102 L9,9 L5.47328849,10.854102 L6.14683045,6.92705098 L3.2936609,4.14589803 L7.23664424,3.57294902 L9,0 Z" id="Combined-Shape"></path>
            </g>
        </g>
    </g>
</svg>