<svg width="18" height="18" viewBox="0 0 18 18" fill="none" xmlns="http://www.w3.org/2000/svg">
<path d="M7.06358 10.75C6.56628 10.2536 6.26358 9.57898 6.26358 8.82223C6.26358 7.30612 7.48477 6.08406 9.00001 6.08406C9.74985 6.08406 10.44 6.38763 10.9287 6.88406" stroke="#04004E" stroke-width="1.5" stroke-linecap="round" stroke-linejoin="round"/>
<path d="M11.6856 9.3075C11.4849 10.4232 10.6062 11.3036 9.49139 11.506" stroke="#04004E" stroke-width="1.5" stroke-linecap="round" stroke-linejoin="round"/>
<path d="M4.3773 13.4358C3.00476 12.3582 1.84238 10.7842 1 8.8218C1.85103 6.85077 3.02119 5.26807 4.40238 4.1818C5.77492 3.09553 7.35849 2.50569 9 2.50569C10.651 2.50569 12.2337 3.10417 13.6149 4.19823" stroke="#04004E" stroke-width="1.5" stroke-linecap="round" stroke-linejoin="round"/>
<path d="M15.4415 6.1005C16.0366 6.89098 16.5598 7.80342 17 8.82136C15.2988 12.7626 12.2926 15.1366 9.00002 15.1366C8.25364 15.1366 7.51764 15.0155 6.81018 14.7794" stroke="#04004E" stroke-width="1.5" stroke-linecap="round" stroke-linejoin="round"/>
<path d="M15.8215 2L2.17917 15.6424" stroke="#04004E" stroke-width="1.5" stroke-linecap="round" stroke-linejoin="round"/>
</svg>
