<?xml version="1.0" encoding="UTF-8"?>
<svg width="24px" height="30px" viewBox="0 0 24 30" version="1.1" xmlns="http://www.w3.org/2000/svg" xmlns:xlink="http://www.w3.org/1999/xlink">
    <g id="Agency" stroke="none" stroke-width="1" fill="none" fill-rule="evenodd">
        <g id="Agency-Onboarding---Add-talents---file-uploaded" transform="translate(-433.000000, -727.000000)">
            <g id="icon/fle" transform="translate(430.000000, 727.000000)">
                <path d="M25.5,0 C26.0522847,-1.01453063e-16 26.5,0.44771525 26.5,1 L26.5,29 C26.5,29.5522847 26.0522847,30 25.5,30 L4.5,30 C3.94771525,30 3.5,29.5522847 3.5,29 L3.5,7 L9.5,7 C10.0522847,7 10.5,6.55228475 10.5,6 L10.5,0 L25.5,0 Z M20.5,22 L9.5,22 C8.94771525,22 8.5,22.4477153 8.5,23 C8.5,23.5522847 8.94771525,24 9.5,24 L9.5,24 L20.5,24 C21.0522847,24 21.5,23.5522847 21.5,23 C21.5,22.4477153 21.0522847,22 20.5,22 L20.5,22 Z M20.5,17 L9.5,17 C8.94771525,17 8.5,17.4477153 8.5,18 C8.5,18.5522847 8.94771525,19 9.5,19 L9.5,19 L20.5,19 C21.0522847,19 21.5,18.5522847 21.5,18 C21.5,17.4477153 21.0522847,17 20.5,17 L20.5,17 Z M20.5,12 L9.5,12 C8.94771525,12 8.5,12.4477153 8.5,13 C8.5,13.5522847 8.94771525,14 9.5,14 L9.5,14 L20.5,14 C21.0522847,14 21.5,13.5522847 21.5,13 C21.5,12.4477153 21.0522847,12 20.5,12 L20.5,12 Z M20.5,7 L15.5,7 C14.9477153,7 14.5,7.44771525 14.5,8 C14.5,8.55228475 14.9477153,9 15.5,9 L15.5,9 L20.5,9 C21.0522847,9 21.5,8.55228475 21.5,8 C21.5,7.44771525 21.0522847,7 20.5,7 L20.5,7 Z" id="Combined-Shape" fill="#2E2E2E"></path>
                <path d="M10.5,0 L10.5,6 C10.5,6.55228475 10.0522847,7 9.5,7 L3.5,7 L3.5,7 L10.5,0 Z" id="Rectangle" fill="#9A97A9"></path>
            </g>
        </g>
    </g>
</svg>