<?xml version="1.0" encoding="UTF-8"?>
<svg width="64px" height="83px" viewBox="0 0 64 83" version="1.1" xmlns="http://www.w3.org/2000/svg" xmlns:xlink="http://www.w3.org/1999/xlink">
    <g id="Talents" stroke="none" stroke-width="1" fill="none" fill-rule="evenodd">
        <g id="Dev---My-projects---empty" transform="translate(-928.000000, -278.000000)">
            <g id="Group-21" transform="translate(930.000000, 280.000000)">
                <path d="M57.8510079,50.5885039 L20.5593543,64.1617323 C19.8237638,64.4291339 19.0106929,64.0502362 18.7428189,63.3146457 L0.321874016,12.7044094 C0.0544724409,11.9688189 0.433370079,11.1552756 1.16896063,10.887874 L30.4338425,0.236220472 L43.1991969,6.18897638 L58.6980945,48.7719685 C58.9659685,49.5075591 58.5865984,50.3211024 57.8510079,50.5885039" id="Fill-1" fill="#FFFFFF"></path>
                <path d="M57.8510079,50.5885039 L20.5593543,64.1617323 C19.8237638,64.4291339 19.0106929,64.0502362 18.7428189,63.3146457 L0.321874016,12.7044094 C0.0544724409,11.9688189 0.433370079,11.1552756 1.16896063,10.887874 L30.4338425,0.236220472 L43.1991969,6.18897638 L58.6980945,48.7719685 C58.9659685,49.5075591 58.5865984,50.3211024 57.8510079,50.5885039 Z" id="Stroke-3" stroke="#C6C4CF" stroke-width="3" stroke-linecap="round" stroke-linejoin="round"></path>
                <path d="M58.6018583,55.1564882 L19.5196535,62.0475118 C18.7491024,62.1835748 18.0139843,61.6686142 17.8779213,60.898063 L8.52548031,7.85806299 C8.38941732,7.08703937 8.90437795,6.35192126 9.67492913,6.21585827 L40.3448504,0.807826772 L51.8823307,8.88656693 L59.7517795,53.5142835 C59.8873701,54.2853071 59.3728819,55.0204252 58.6018583,55.1564882" id="Fill-5" fill="#FFFFFF"></path>
                <path d="M58.6018583,55.1564882 L19.5196535,62.0475118 C18.7491024,62.1835748 18.0139843,61.6686142 17.8779213,60.898063 L8.52548031,7.85806299 C8.38941732,7.08703937 8.90437795,6.35192126 9.67492913,6.21585827 L40.3448504,0.807826772 L51.8823307,8.88656693 L59.7517795,53.5142835 C59.8873701,54.2853071 59.3728819,55.0204252 58.6018583,55.1564882 Z" id="Stroke-7" stroke="#C6C4CF" stroke-width="3" stroke-linecap="round" stroke-linejoin="round"></path>
                <line x1="21.5625354" y1="40.9844409" x2="49.478126" y2="36.0620787" id="Stroke-9" stroke="#C6C4CF" stroke-width="3" stroke-linecap="round"></line>
                <line x1="28.0293071" y1="23.2459843" x2="46.6401732" y2="19.9644094" id="Stroke-11" stroke="#C6C4CF" stroke-width="3" stroke-linecap="round"></line>
                <line x1="22.405937" y1="45.7671969" x2="50.3215276" y2="40.8448346" id="Stroke-13" stroke="#C6C4CF" stroke-width="3" stroke-linecap="round"></line>
                <line x1="23.2492913" y1="50.5499528" x2="51.1648819" y2="45.6275906" id="Stroke-15" stroke="#C6C4CF" stroke-width="3" stroke-linecap="round"></line>
                <polygon id="Stroke-17" stroke="#C6C4CF" stroke-width="3" stroke-linecap="round" stroke-linejoin="round" points="51.8825197 8.88680315 42.0746457 10.6164094 40.3450394 0.808062992 43.8302362 3.24822047"></polygon>
                <line x1="12.4542047" y1="79.0626299" x2="46.2346772" y2="79.0626299" id="Stroke-19" stroke="#C6C4CF" stroke-width="3" stroke-linecap="round" stroke-linejoin="round"></line>
            </g>
        </g>
    </g>
</svg>