<svg width="18" height="18" viewBox="0 0 18 18" fill="none" xmlns="http://www.w3.org/2000/svg">
<path d="M7.33017 13.8929H1.02945" stroke="#04004E" stroke-width="1.5" stroke-linecap="round" stroke-linejoin="round"/>
<path d="M10.1405 4.20038H16.4412" stroke="#04004E" stroke-width="1.5" stroke-linecap="round" stroke-linejoin="round"/>
<path fill-rule="evenodd" clip-rule="evenodd" d="M5.72629 4.14625C5.72629 2.8506 4.66813 1.8 3.36314 1.8C2.05816 1.8 1 2.8506 1 4.14625C1 5.44191 2.05816 6.49251 3.36314 6.49251C4.66813 6.49251 5.72629 5.44191 5.72629 4.14625Z" stroke="#04004E" stroke-width="1.5" stroke-linecap="round" stroke-linejoin="round"/>
<path fill-rule="evenodd" clip-rule="evenodd" d="M17 13.8537C17 12.5581 15.9427 11.5075 14.6377 11.5075C13.3319 11.5075 12.2737 12.5581 12.2737 13.8537C12.2737 15.1494 13.3319 16.2 14.6377 16.2C15.9427 16.2 17 15.1494 17 13.8537Z" stroke="#04004E" stroke-width="1.5" stroke-linecap="round" stroke-linejoin="round"/>
</svg>
