<?xml version="1.0" encoding="UTF-8"?>
<svg width="16px" height="16px" viewBox="0 0 16 16" version="1.1" xmlns="http://www.w3.org/2000/svg" xmlns:xlink="http://www.w3.org/1999/xlink">
    <g id="Page-1" stroke="none" stroke-width="1" fill="none" fill-rule="evenodd">
        <g id="Artboard" transform="translate(-263.000000, -104.000000)" fill="#04004E" fill-rule="nonzero">
            <g id="github" transform="translate(263.000000, 104.000000)">
                <g id="icon/github">
                    <path d="M5.35161291,12.5612903 C5.35161291,12.6258065 5.27741935,12.6774194 5.18387097,12.6774194 C5.07741935,12.6870968 5.0032258,12.6354839 5.0032258,12.5612903 C5.0032258,12.4967742 5.07741935,12.4451613 5.17096774,12.4451613 C5.26774194,12.4354839 5.35161291,12.4870968 5.35161291,12.5612903 Z M4.34838709,12.4161291 C4.32580645,12.4806452 4.39032258,12.5548387 4.48709677,12.5741935 C4.57096774,12.6064516 4.66774194,12.5741935 4.68709677,12.5096774 C4.70645161,12.4451613 4.64516129,12.3709677 4.54838709,12.3419355 C4.46451613,12.3193548 4.37096774,12.3516129 4.34838709,12.4161291 Z M5.77419355,12.3612903 C5.68064516,12.3838709 5.61612903,12.4451613 5.62580645,12.5193548 C5.63548387,12.5838709 5.71935484,12.6258065 5.81612903,12.6032258 C5.90967742,12.5806452 5.97419355,12.5193548 5.96451613,12.4548387 C5.95483871,12.3935484 5.86774194,12.3516129 5.77419355,12.3612903 Z M7.8967742,0 C3.42258065,0 0,3.3967742 0,7.87096774 C0,11.4483871 2.25161291,14.5096774 5.46774194,15.5870968 C5.88064516,15.6612903 6.02580645,15.4064516 6.02580645,15.1967742 C6.02580645,14.9967742 6.01612903,13.8935484 6.01612903,13.2161291 C6.01612903,13.2161291 3.75806452,13.7 3.28387097,12.2548387 C3.28387097,12.2548387 2.91612903,11.3161291 2.38709677,11.0741935 C2.38709677,11.0741935 1.64838709,10.567742 2.43870968,10.5774194 C2.43870968,10.5774194 3.24193548,10.6419355 3.68387097,11.4096774 C4.39032258,12.6548387 5.57419355,12.2967742 6.03548387,12.0838709 C6.10967742,11.567742 6.31935484,11.2096774 6.55161291,10.9967742 C4.74838709,10.7967742 2.92903226,10.5354839 2.92903226,7.43225806 C2.92903226,6.54516129 3.17419355,6.1 3.69032258,5.53225806 C3.60645161,5.32258065 3.33225806,4.45806452 3.77419355,3.34193548 C4.44838709,3.13225806 6,4.21290323 6,4.21290323 C6.64516129,4.03225806 7.33870968,3.93870968 8.02580645,3.93870968 C8.71290323,3.93870968 9.40645164,4.03225806 10.0516129,4.21290323 C10.0516129,4.21290323 11.6032258,3.12903226 12.2774194,3.34193548 C12.7193548,4.46129032 12.4451613,5.32258065 12.3612903,5.53225806 C12.8774194,6.1032258 13.1935484,6.54838709 13.1935484,7.43225806 C13.1935484,10.5451613 11.2935484,10.7935484 9.49032258,10.9967742 C9.7870968,11.2516129 10.0387097,11.7354839 10.0387097,12.4935484 C10.0387097,13.5806452 10.0290323,14.9258065 10.0290323,15.1903226 C10.0290323,15.4 10.1774194,15.6548387 10.5870968,15.5806452 C13.8129032,14.5096774 16,11.4483871 16,7.87096774 C16,3.3967742 12.3709677,0 7.8967742,0 Z M3.13548387,11.1258065 C3.09354839,11.1580645 3.1032258,11.232258 3.15806452,11.2935484 C3.20967742,11.3451613 3.28387097,11.367742 3.32580645,11.3258065 C3.36774194,11.2935484 3.35806452,11.2193548 3.3032258,11.1580645 C3.25161291,11.1064516 3.17741935,11.0838709 3.13548387,11.1258065 Z M2.78709677,10.8645161 C2.76451613,10.9064516 2.7967742,10.9580645 2.86129032,10.9903226 C2.91290323,11.0225806 2.97741935,11.0129032 3,10.967742 C3.02258065,10.9258065 2.99032258,10.8741935 2.92580645,10.8419355 C2.86129032,10.8225806 2.80967742,10.832258 2.78709677,10.8645161 Z M3.83225806,12.0129032 C3.78064516,12.0548387 3.8,12.1516129 3.87419355,12.2129032 C3.94838709,12.2870968 4.04193548,12.2967742 4.08387097,12.2451613 C4.12580645,12.2032258 4.10645161,12.1064516 4.04193548,12.0451613 C3.97096774,11.9709677 3.87419355,11.9612903 3.83225806,12.0129032 Z M3.46451613,11.5387097 C3.41290323,11.5709677 3.41290323,11.6548387 3.46451613,11.7290323 C3.51612903,11.8032258 3.6032258,11.8354839 3.64516129,11.8032258 C3.6967742,11.7612903 3.6967742,11.6774194 3.64516129,11.6032258 C3.6,11.5290323 3.51612903,11.4967742 3.46451613,11.5387097 Z" id="Shape"></path>
                </g>
            </g>
        </g>
    </g>
</svg>