<?xml version="1.0" encoding="UTF-8"?>
<svg width="20px" height="20px" viewBox="0 0 20 20" version="1.1" xmlns="http://www.w3.org/2000/svg" xmlns:xlink="http://www.w3.org/1999/xlink">
    <!-- Generator: Sketch 64 (93537) - https://sketch.com -->
    <title>heart</title>
    <desc>Created with Sketch.</desc>
    <g id="Talent-dashboard" stroke="none" stroke-width="1" fill="none" fill-rule="evenodd">
        <g id="Dev---Dashboard-New" transform="translate(-40.000000, -925.000000)" fill="#2E2E2E">
            <g id="icon/wellbeing" transform="translate(40.000000, 925.000000)">
                <path d="M13.9418666,7.20207031 C14.2493275,7.21722656 14.4854213,7.4825 14.4854213,7.79035156 L14.4854213,7.79035156 L14.4854213,8.22476562 C14.4854213,8.54835937 14.747765,8.81070312 15.0713588,8.81070312 L15.0713588,8.81066406 L19.7018275,8.81066406 C18.3213978,13.4142969 12.5386244,17.7148047 10.6209681,19.0384375 C10.24714,19.2964844 9.75296033,19.2975 9.3783119,19.0406641 C7.67854627,17.8753125 2.94733533,14.3898828 0.930382208,10.4226172 L0.930382208,10.4226172 L5.21866346,10.4226172 L5.21866346,12.0152734 C5.21866346,12.9669531 5.98475721,13.7430859 6.93260877,13.7593359 C7.90850721,13.7760547 8.70721815,12.9603906 8.70721815,11.984375 L8.70721815,11.984375 L8.70721815,8.55644531 C8.70721815,8.23125 8.97979627,7.96855469 9.30846815,7.98476562 C9.61592908,7.99992187 9.85202283,8.26519531 9.85202283,8.57304687 L9.85202283,8.57304687 L9.85202283,10.1778516 C9.85202283,11.1295312 10.6181556,11.9056641 11.5660072,11.9219141 C12.5419056,11.9386328 13.3406166,11.1230078 13.3406166,10.1469922 L13.3406166,10.1469922 L13.3406166,7.77378906 C13.3406166,7.44859375 13.6131947,7.18585937 13.9418666,7.20207031 Z M14.8503822,0.76 C17.6944447,0.76 20.0196791,3.51722656 20.0001157,6.91832031 C19.9985853,7.1584375 19.9822963,7.39875 19.9523744,7.63882812 L19.9523744,7.63882812 L15.652101,7.63882812 C15.5829603,6.73988281 14.8293666,6.02949219 13.9129994,6.02949219 C12.9512025,6.02949219 12.1687025,6.81199219 12.1687025,7.77378906 L12.1687025,7.77378906 L12.1687025,10.1778906 C12.1687025,10.4935156 11.9119447,10.7503125 11.5963197,10.7503125 C11.2806947,10.7503125 11.0238978,10.4935156 11.0238978,10.1778906 L11.0238978,10.1778906 L11.0238978,8.55648437 C11.0238978,7.5946875 10.2414369,6.81222656 9.27964002,6.81222656 C8.31784315,6.81222656 7.53534315,7.5946875 7.53534315,8.55648437 L7.53534315,8.55648437 L7.53534315,12.0153516 C7.53534315,12.3309766 7.27854627,12.5877734 6.96292127,12.5877734 C6.64729627,12.5877734 6.39053846,12.3309766 6.39053846,12.0153516 L6.39053846,12.0153516 L6.39053846,9.83671875 C6.39053846,9.513125 6.12819471,9.25078125 5.80460096,9.25078125 L5.80460096,9.25078125 L0.423194708,9.25078125 C0.149991583,8.48003906 -0.00430529196,7.69832031 9.14684181e-05,6.91832031 C0.019913458,3.51722656 2.30577283,0.76 5.1498744,0.76 C7.39096815,0.76 9.29241346,2.47507812 10.0001478,4.86523437 C10.7078431,2.47507812 12.6092494,0.76 14.8503822,0.76 Z" id="Combined-Shape"></path>
            </g>
        </g>
    </g>
</svg>