<?xml version="1.0" encoding="UTF-8"?>
<svg width="24px" height="24px" viewBox="0 0 24 24" version="1.1" xmlns="http://www.w3.org/2000/svg" xmlns:xlink="http://www.w3.org/1999/xlink">
    <g id="Client" stroke="none" stroke-width="1" fill="none" fill-rule="evenodd">
        <g id="Client---Hire-Talent---Filters---Location-&amp;-Language" transform="translate(-1758.000000, -28.000000)" fill="#9A97A9">
            <g id="Group-2">
                <g id="icon/help" transform="translate(1758.000000, 28.000000)">
                    <path d="M12.0001,0.0002 C18.6271,0.0002 24.0001,5.3732 24.0001,12.0002 C24.0001,18.6272 18.6271,24.0002 12.0001,24.0002 C5.3731,24.0002 0.0001,18.6272 0.0001,12.0002 C0.0001,5.3732 5.3731,0.0002 12.0001,0.0002 Z M12.1446,17.2731 C11.3156,17.2731 10.6446,17.9441 10.6446,18.7731 C10.6446,19.6011 11.3156,20.2731 12.1446,20.2731 C12.9736,20.2731 13.6446,19.6011 13.6446,18.7731 C13.6446,17.9441 12.9736,17.2731 12.1446,17.2731 Z M13.2176,4.3291 C11.8106,4.0081 10.3656,4.3311 9.2546,5.2171 C8.1436,6.1031 7.5066,7.4251 7.5066,8.8451 C7.5066,9.6741 8.1776,10.3451 9.0066,10.3451 C9.8346,10.3451 10.5066,9.6741 10.5066,8.8451 C10.5066,8.3441 10.7316,7.8761 11.1246,7.5631 C11.3546,7.3791 11.8436,7.0931 12.5506,7.2541 C13.1186,7.3841 13.6056,7.8711 13.7356,8.4401 C13.9446,9.3541 13.4366,10.0021 12.9386,10.2791 C11.5236,11.0671 10.6446,12.6301 10.6446,14.3581 C10.6446,15.1871 11.3156,15.8581 12.1446,15.8581 C12.9736,15.8581 13.6446,15.1871 13.6446,14.3581 C13.6446,13.7271 13.9406,13.1551 14.3976,12.9001 C16.2206,11.8861 17.1296,9.8251 16.6606,7.7731 C16.2716,6.0691 14.9206,4.7181 13.2176,4.3291 Z" id="Combined-Shape"></path>
                </g>
            </g>
        </g>
    </g>
</svg>