<svg width="80" height="80" viewBox="0 0 80 80" fill="none" xmlns="http://www.w3.org/2000/svg">
<rect width="80" height="80" rx="10" fill="url(#paint0_linear_366:2435)"/>
<rect opacity="0.1" x="0.5" y="0.5" width="79" height="79" rx="9.5" stroke="#1833CC"/>
<path fill-rule="evenodd" clip-rule="evenodd" d="M28.9293 33.1429C24.2025 33.1429 20.3618 29.2969 20.3618 24.5714C20.3618 19.8459 24.2025 16 28.9293 16C33.6527 16 37.4968 19.8459 37.4968 24.5714C37.4968 29.2969 33.6527 33.1429 28.9293 33.1429Z" fill="white"/>
<path fill-rule="evenodd" clip-rule="evenodd" d="M65.0808 46.6307C66.2289 49.5745 65.6325 53.1127 64.4051 56.0283C62.9501 59.4958 60.1644 62.1211 56.6547 63.2675C55.0963 63.7771 53.4621 64 51.8313 64H22.9362C20.0609 64 17.5165 63.31 15.4306 62.0256C14.1239 61.2189 13.8929 59.3578 14.8617 58.1512C16.4822 56.1344 18.0819 54.1105 19.6954 52.069C22.7708 48.1627 24.8428 47.0305 27.1459 48.0247C28.0802 48.4352 29.018 49.0508 29.9833 49.7019C32.5553 51.4498 36.1306 53.8522 40.8401 51.2445C44.0809 49.4294 45.953 46.3087 47.5872 43.6019C48.2561 42.505 48.8905 41.4082 49.6283 40.4139C50.3937 39.3843 53.2311 36.1645 56.9063 38.4573C59.2473 39.9009 61.216 41.854 63.3225 43.9451C64.1258 44.7448 64.6981 45.6541 65.0808 46.6307Z" fill="white"/>
<defs>
<linearGradient id="paint0_linear_366:2435" x1="39.9999" y1="2.03545e-05" x2="35.0931" y2="79.6979" gradientUnits="userSpaceOnUse">
<stop stop-color="#DDD7FF"/>
<stop offset="1" stop-color="#BEDFFF"/>
</linearGradient>
</defs>
</svg>
