<svg width="30" height="30" viewBox="0 0 30 30" fill="none" xmlns="http://www.w3.org/2000/svg">
<rect width="30" height="30" rx="10" fill="url(#paint0_linear_263_1996)"/>
<rect opacity="0.1" x="0.5" y="0.5" width="29" height="29" rx="9.5" stroke="#1833CC"/>
<path fill-rule="evenodd" clip-rule="evenodd" d="M10.8486 12.4286C9.07602 12.4286 7.63574 10.9863 7.63574 9.21429C7.63574 7.44222 9.07602 6 10.8486 6C12.6198 6 14.0614 7.44222 14.0614 9.21429C14.0614 10.9863 12.6198 12.4286 10.8486 12.4286Z" fill="white"/>
<path fill-rule="evenodd" clip-rule="evenodd" d="M24.4053 17.4865C24.8358 18.5904 24.6122 19.9173 24.1519 21.0106C23.6063 22.3109 22.5617 23.2954 21.2455 23.7253C20.6611 23.9164 20.0483 24 19.4368 24H8.60109C7.52282 24 6.56868 23.7413 5.78648 23.2596C5.29648 22.9571 5.20985 22.2592 5.57315 21.8067C6.18081 21.0504 6.78071 20.2914 7.38578 19.5259C8.53903 18.061 9.31606 17.6364 10.1797 18.0093C10.5301 18.1632 10.8817 18.3941 11.2437 18.6382C12.2082 19.2937 13.549 20.1946 15.315 19.2167C16.5304 18.536 17.2324 17.3658 17.8452 16.3507C18.096 15.9394 18.3339 15.5281 18.6106 15.1552C18.8976 14.7691 19.9617 13.5617 21.3399 14.4215C22.2177 14.9628 22.956 15.6953 23.7459 16.4794C24.0472 16.7793 24.2618 17.1203 24.4053 17.4865Z" fill="white"/>
<defs>
<linearGradient id="paint0_linear_263_1996" x1="15" y1="7.63295e-06" x2="13.1599" y2="29.8867" gradientUnits="userSpaceOnUse">
<stop stop-color="#DDD7FF"/>
<stop offset="1" stop-color="#BEDFFF"/>
</linearGradient>
</defs>
</svg>
