<svg width="16" height="16" viewBox="0 0 16 16" fill="none" xmlns="http://www.w3.org/2000/svg">
<path d="M7 8.5L6.53956 4.87403C6.47612 4.37446 6.0511 4 5.54752 4H4.47292C3.96064 4 3.53121 4.38713 3.47827 4.89666L3 9.5" stroke="#1833CC" stroke-width="1.5" stroke-linejoin="round"/>
<path d="M11 15V8.30161C11 7.64458 10.3772 7.16608 9.74234 7.33538L1.74234 9.46871C1.30458 9.58544 1 9.98189 1 10.4349V15" stroke="#1833CC" stroke-width="1.5" stroke-linecap="round"/>
<path d="M11 11L13.5528 9.72361C14.2177 9.39116 15 9.87465 15 10.618V15" stroke="#1833CC" stroke-width="1.5" stroke-linecap="round"/>
<path d="M5 4V3C5 1.89543 5.89543 1 7 1L8 1" stroke="#1833CC" stroke-width="1.5" stroke-linecap="round"/>
<path d="M11 1H11.5" stroke="#1833CC" stroke-width="1.5" stroke-linecap="round"/>
<path d="M4.5 15V14C4.5 13.1716 5.17157 12.5 6 12.5V12.5C6.82843 12.5 7.5 13.1716 7.5 14V15" stroke="#1833CC" stroke-width="1.5" stroke-linecap="round"/>
</svg>
