<svg width="16" height="16" viewBox="0 0 16 16" fill="none" xmlns="http://www.w3.org/2000/svg">
<circle cx="8" cy="8" r="8" fill="#04004E"/>
<path d="M6.25622 10.765L7.66022 7.151C7.71222 6.995 7.69922 6.917 7.62122 6.917C7.36122 6.917 6.96689 7.31133 6.43822 8.1L6.33422 8.061C6.62022 7.541 6.96255 7.06867 7.36122 6.644C7.83789 6.14133 8.45322 5.89 9.20722 5.89C9.52789 5.89 9.68822 5.968 9.68822 6.124C9.68822 6.21933 9.56255 6.592 9.31122 7.242L7.90722 10.856C7.85522 11.012 7.86822 11.09 7.94622 11.09C8.23222 11.09 8.62222 10.7347 9.11622 10.024L9.22022 10.063C8.91689 10.557 8.57889 10.9947 8.20622 11.376C7.69489 11.87 7.07955 12.117 6.36022 12.117C6.03955 12.117 5.87922 12.039 5.87922 11.883C5.87922 11.7877 6.00489 11.415 6.25622 10.765ZM9.32422 4.863C9.06422 4.863 8.85622 4.78933 8.70022 4.642C8.54422 4.486 8.46622 4.28667 8.46622 4.044C8.46622 3.74067 8.57022 3.48933 8.77822 3.29C8.98622 3.082 9.23755 2.978 9.53222 2.978C9.79222 2.978 9.99589 3.056 10.1432 3.212C10.2992 3.368 10.3772 3.56733 10.3772 3.81C10.3772 4.096 10.2732 4.343 10.0652 4.551C9.85722 4.759 9.61022 4.863 9.32422 4.863Z" fill="white"/>
</svg>
