<svg width="30" height="30" viewBox="0 0 30 30" fill="none" xmlns="http://www.w3.org/2000/svg">
<g>
<path d="M24.3369 22.2757C25.3508 21.7439 26.1441 20.8033 26.456 19.612L29.0463 9.9449L25.2044 2.96711L18.2071 1.09219C16.1713 0.538294 14.0714 1.59576 13.2768 3.49999" stroke="#04004E" stroke-width="1.5" stroke-linecap="round" stroke-linejoin="round"/>
<path d="M24.9322 2.88208L24.1122 5.94209C23.712 7.43581 24.5962 8.97041 26.0888 9.37486L28.9858 10.1511" stroke="#04004E" stroke-width="1.5" stroke-linecap="round" stroke-linejoin="round"/>
</g>
<g>
<path fill-rule="evenodd" clip-rule="evenodd" d="M13.0024 6.26431L5.11101 7.37338C2.64212 7.71068 0.896894 9.96053 1.18437 12.4364L2.97452 25.174C3.27159 27.6751 5.54049 29.4613 8.04046 29.1643C8.08435 29.1582 8.12842 29.1532 8.17096 29.146L17.6473 27.8142C20.1144 27.3779 21.7871 25.0597 21.4242 22.581L19.892 11.6787L13.0024 6.26431Z" stroke="#04004E" stroke-width="1.5" stroke-linecap="round" stroke-linejoin="round"/>
<path d="M12.6902 6.2952L13.1752 9.74622C13.4119 11.4308 14.9669 12.6047 16.6522 12.3727L19.9193 11.9135" stroke="#04004E" stroke-width="1.5" stroke-linecap="round" stroke-linejoin="round"/>
<path d="M6.60126 18.2596L12.4896 17.4321" stroke="#04004E" stroke-width="1.5" stroke-linecap="round"/>
<path d="M7.26331 22.9703L16.6847 21.6462" stroke="#04004E" stroke-width="1.5" stroke-linecap="round"/>
</g>
</svg>
