<svg width="40" height="40" viewBox="0 0 40 40" fill="none" xmlns="http://www.w3.org/2000/svg">
<path d="M10.627 0H29.3708C35.9222 0 40 4.62486 40 11.1697V28.8303C40 35.3751 35.9222 40 29.3687 40H10.627C4.07568 40 0 35.3751 0 28.8303V11.1697C0 4.62486 4.09514 0 10.627 0Z" fill="url(#paint0_linear_3782_17624)"/>
<path d="M10 15.6892C10 10.7062 14.4772 6.66663 20 6.66663C25.5228 6.66663 30 10.7062 30 15.6892C30 17.5156 29.3985 19.2153 28.3645 20.6357C26.982 22.5351 25.4547 24.566 25.0843 26.7824C24.9932 27.3271 24.5523 27.7777 24 27.7777H16C15.4477 27.7777 15.0068 27.3271 14.9157 26.7824C14.5453 24.566 13.018 22.5351 11.6355 20.6357C10.6015 19.2153 10 17.5156 10 15.6892Z" stroke="white" stroke-width="1.5" stroke-linejoin="round"/>
<path d="M16.1113 33.3333H23.8891" stroke="white" stroke-width="1.5" stroke-linecap="round"/>
<defs>
<linearGradient id="paint0_linear_3782_17624" x1="20" y1="1.01773e-05" x2="17.5465" y2="39.8489" gradientUnits="userSpaceOnUse">
<stop stop-color="#DDD7FF"/>
<stop offset="1" stop-color="#BEDFFF"/>
</linearGradient>
</defs>
</svg>
