<svg width="16" height="16" viewBox="0 0 16 16" fill="none" xmlns="http://www.w3.org/2000/svg">
<path fill-rule="evenodd" clip-rule="evenodd" d="M12.077 1H6.92243C5.12616 1 4 2.27184 4 4.07168V8.92832C4 10.7282 5.12081 12 6.92243 12H12.0764C13.8786 12 15 10.7282 15 8.92832V4.07168C15 2.27184 13.8786 1 12.077 1Z" stroke="#04004E" stroke-width="1.5" stroke-linecap="round" stroke-linejoin="round"/>
<path d="M3.92243 4C2.12616 4 1 5.27184 1 7.07168V11.9283C1 13.7282 2.12081 15 3.92243 15H9.07638C10.8546 15 11.9706 13.7618 12 12" stroke="#04004E" stroke-width="1.5" stroke-linecap="round" stroke-linejoin="round"/>
<path d="M6.75 9.25L9.5 3.75L12.25 9.25" stroke="#04004E" stroke-width="1.5" stroke-linecap="round" stroke-linejoin="round"/>
<path d="M7.66666 7.41666H11.3333" stroke="#04004E" stroke-width="1.5" stroke-linecap="round" stroke-linejoin="round"/>
</svg>
