<?xml version="1.0" encoding="UTF-8"?>
<svg width="18px" height="20px" viewBox="0 0 18 20" version="1.1" xmlns="http://www.w3.org/2000/svg" xmlns:xlink="http://www.w3.org/1999/xlink">
    <!-- Generator: Sketch 64 (93537) - https://sketch.com -->
    <title>learning</title>
    <desc>Created with Sketch.</desc>
    <g id="Talent-dashboard" stroke="none" stroke-width="1" fill="none" fill-rule="evenodd">
        <g id="Dev---Dashboard-New" transform="translate(-41.000000, -736.000000)" fill="#2E2E2E">
            <g id="icon/learning" transform="translate(40.000000, 736.000000)">
                <path d="M3.4146875,9.15140625 C3.57261719,9.041875 3.77421875,9.01683594 3.95417969,9.084375 L3.95417969,9.084375 L9.4125,11.13125 L9.4125,20 L3.54269531,17.7988281 C3.31402344,17.7130859 3.1625,17.4944531 3.1625,17.2501953 L3.1625,17.2501953 L3.1625,16.015625 L3.3578125,16.015625 C4.32707031,16.015625 5.115625,15.2270703 5.115625,14.2578125 L5.115625,14.2578125 L5.115625,12.6953125 C5.115625,11.7260547 4.32707031,10.9375 3.3578125,10.9375 L3.3578125,10.9375 L3.1625,10.9375 L3.1625,9.63300781 C3.1625,9.44082031 3.25671875,9.26089844 3.4146875,9.15140625 Z M16.0426953,9.084375 C16.2225781,9.01683594 16.4242188,9.041875 16.5821875,9.15140625 C16.7401563,9.26089844 16.834375,9.44082031 16.834375,9.63300781 L16.834375,9.63300781 L16.834375,10.9375 L16.6390625,10.9375 C15.6698047,10.9375 14.88125,11.7260547 14.88125,12.6953125 L14.88125,12.6953125 L14.88125,14.2578125 C14.88125,15.2270703 15.6698047,16.015625 16.6390625,16.015625 L16.6390625,16.015625 L16.834375,16.015625 L16.834375,17.2501953 C16.834375,17.4944531 16.6828516,17.7130859 16.4541797,17.7988281 L16.4541797,17.7988281 L10.584375,20 L10.584375,11.13125 Z M17.0296875,12.109375 C17.7847656,12.109375 18.396875,12.7214844 18.396875,13.4765625 C18.396875,14.2316406 17.7847656,14.84375 17.0296875,14.84375 L17.0296875,14.84375 L16.6390625,14.84375 C16.3154688,14.84375 16.053125,14.5814063 16.053125,14.2578125 L16.053125,14.2578125 L16.053125,12.6953125 C16.053125,12.3717188 16.3154688,12.109375 16.6390625,12.109375 L16.6390625,12.109375 Z M3.3578125,12.109375 C3.68140625,12.109375 3.94375,12.3717188 3.94375,12.6953125 L3.94375,12.6953125 L3.94375,14.2578125 C3.94375,14.5814063 3.68140625,14.84375 3.3578125,14.84375 L3.3578125,14.84375 L2.9671875,14.84375 C2.21210937,14.84375 1.6,14.2316406 1.6,13.4765625 C1.6,12.7214844 2.21210937,12.109375 2.9671875,12.109375 L2.9671875,12.109375 Z M12.4382422,7.09042969 C13.2153906,7.38738281 13.9359375,7.82558594 14.5624609,8.38792969 L14.5624609,8.38792969 L9.9984375,10.0994531 L5.43441406,8.38792969 C6.0609375,7.82558594 6.78148438,7.38742188 7.55863281,7.09042969 C8.26164063,7.54695313 9.09957031,7.8125 9.9984375,7.8125 C10.8973047,7.8125 11.7352344,7.54695313 12.4382422,7.09042969 Z M9.9984375,0 C11.8321955,0 13.31875,1.48655454 13.31875,3.3203125 C13.31875,5.15407046 11.8321955,6.640625 9.9984375,6.640625 C8.16467954,6.640625 6.678125,5.15407046 6.678125,3.3203125 C6.678125,1.48655454 8.16467954,0 9.9984375,0 Z" id="Combined-Shape"></path>
            </g>
        </g>
    </g>
</svg>