<svg width="16" height="16" viewBox="0 0 16 16" fill="none" xmlns="http://www.w3.org/2000/svg">
<path d="M3.58143 16.0003H0.264286V5.31792H3.58143V16.0003ZM1.92107 3.86075C0.860357 3.86075 0 2.98216 0 1.92142C7.59214e-09 1.41191 0.202398 0.923265 0.562669 0.562987C0.92294 0.202708 1.41157 0.000305176 1.92107 0.000305176C2.43057 0.000305176 2.9192 0.202708 3.27947 0.562987C3.63974 0.923265 3.84214 1.41191 3.84214 1.92142C3.84214 2.98216 2.98143 3.86075 1.92107 3.86075ZM15.9964 16.0003H12.6864V10.8002C12.6864 9.56088 12.6614 7.97155 10.9618 7.97155C9.23714 7.97155 8.97286 9.31801 8.97286 10.7109V16.0003H5.65929V5.31792H8.84071V6.7751H8.88714C9.33 5.9358 10.4118 5.05006 12.0257 5.05006C15.3829 5.05006 16 7.26082 16 10.1323V16.0003H15.9964Z" fill="#04004E"/>
</svg>
