<?xml version="1.0" encoding="UTF-8"?>
<svg width="14px" height="11px" viewBox="0 0 14 11" version="1.1" xmlns="http://www.w3.org/2000/svg" xmlns:xlink="http://www.w3.org/1999/xlink">
    <g id="Page-1" stroke="none" stroke-width="1" fill="none" fill-rule="evenodd">
        <g id="Artboard" transform="translate(0.000000, -112.000000)" fill="#04004E" fill-rule="nonzero">
            <g id="mail" transform="translate(0.000000, 112.812500)">
                <path d="M13.8766797,0.703308594 L9.63076953,4.921875 L13.8766797,9.14044141 C13.9534336,8.98001563 14,8.80266406 14,8.61328125 L14,1.23046875 C14,1.04105859 13.9534336,0.863734375 13.8766797,0.703308594 Z" id="Path"></path>
                <path d="M12.7695312,0 L1.23046875,0 C1.04105859,0 0.863734375,0.0465664063 0.703308594,0.123320313 L6.13003125,5.52269922 C6.60985937,6.00252734 7.39014062,6.00252734 7.86996875,5.52269922 L13.2966914,0.123320313 C13.1362656,0.0465664063 12.9589414,0 12.7695312,0 Z" id="Path"></path>
                <path d="M0.123320313,0.703308594 C0.0465664063,0.863734375 0,1.04105859 0,1.23046875 L0,8.61328125 C0,8.80269141 0.0465664063,8.98004297 0.123320313,9.14044141 L4.36923047,4.921875 L0.123320313,0.703308594 Z" id="Path"></path>
                <path d="M9.05078125,5.50186328 L8.44995703,6.1026875 C7.65045312,6.90219141 6.34951953,6.90219141 5.55001562,6.1026875 L4.94921875,5.50186328 L0.703308594,9.72042969 C0.863734375,9.79718359 1.04105859,9.84375 1.23046875,9.84375 L12.7695312,9.84375 C12.9589414,9.84375 13.1362656,9.79718359 13.2966914,9.72042969 L9.05078125,5.50186328 Z" id="Path"></path>
            </g>
        </g>
    </g>
</svg>