<svg width="18" height="18" viewBox="0 0 18 18" fill="none" xmlns="http://www.w3.org/2000/svg">
<path fill-rule="evenodd" clip-rule="evenodd" d="M17 9C17 13.4186 13.4186 17 9 17C4.58141 17 1 13.4186 1 9C1 4.58141 4.58141 1 9 1C13.4186 1 17 4.58141 17 9Z" stroke="#04004E" stroke-width="1.5" stroke-linecap="round" stroke-linejoin="round"/>
<path d="M10.9985 6.97669C10.9985 6.61685 10.8732 5.67534 9.99997 5.24352C8.2914 4.3986 6.56116 5.89716 7.10686 7.51645C7.65256 9.13573 11.0811 8.56591 10.9985 11.0621C10.916 13.5584 7 13.8749 7 10.6364M9 5V4M9 14V13" stroke="#04004E" stroke-width="1.5" stroke-linecap="round"/>
</svg>
