<?xml version="1.0" encoding="UTF-8"?>
<svg width="18px" height="18px" viewBox="0 0 18 18" version="1.1" xmlns="http://www.w3.org/2000/svg" xmlns:xlink="http://www.w3.org/1999/xlink">
    <g id="Client" stroke="none" stroke-width="1" fill="none" fill-rule="evenodd">
        <g id="Client---Hire-Talents" transform="translate(-683.000000, -453.000000)" fill="#4C00FF">
            <g id="Group-5" transform="translate(643.000000, 262.000000)">
                <g id="icon/payment" transform="translate(40.000000, 191.000000)">
                    <path d="M17.0001,6 C17.5501,6 18.0001,6.44 18.0001,7 L18.0001,7 L18.0001,17 C18.0001,17.55 17.5501,18 17.0001,18 L17.0001,18 L1.0001,18 C0.4401,18 0.0001,17.55 0.0001,17 L0.0001,17 L0.0001,7 C0.0001,6.44 0.4401,6 1.0001,6 L1.0001,6 Z M9.0001,8 C6.7901,8 5.0001,9.79 5.0001,12 C5.0001,14.2 6.7901,16 9.0001,16 C11.2101,16 13.0001,14.2 13.0001,12 C13.0001,9.79 11.2101,8 9.0001,8 Z M9.42,8.9565 L9.42,9.6835 C9.852,9.7275 10.216,9.8435 10.512,10.0305 L10.068,10.8945 C9.812,10.6985 9.56,10.6015 9.312,10.6015 C9.16,10.6015 9.036,10.6365 8.94,10.7055 C8.844,10.7755 8.796,10.8545 8.796,10.9425 C8.796,11.0225 8.834,11.0995 8.91,11.1705 C8.986,11.2425 9.086,11.3015 9.21,11.3455 L9.564,11.4645 C9.96,11.6015 10.246,11.7685 10.422,11.9665 C10.598,12.1635 10.686,12.4205 10.686,12.7365 C10.686,12.9295 10.664,13.0995 10.62,13.2465 C10.576,13.3945 10.504,13.5265 10.404,13.6435 C10.304,13.7595 10.173,13.8605 10.011,13.9485 C9.849,14.0365 9.652,14.1165 9.42,14.1885 L9.42,14.9335 L8.868,14.9335 L8.868,14.2195 C8.744,14.2195 8.612,14.2035 8.472,14.1735 C8.332,14.1435 8.194,14.1035 8.058,14.0545 C7.922,14.0035 7.795,13.9455 7.677,13.8795 C7.559,13.8135 7.462,13.7445 7.386,13.6725 L7.872,12.7675 C8.248,13.0995 8.614,13.2655 8.97,13.2655 C9.118,13.2655 9.247,13.2255 9.357,13.1445 C9.467,13.0645 9.522,12.9605 9.522,12.8325 C9.522,12.6565 9.392,12.5265 9.132,12.4425 L8.79,12.3345 C8.586,12.2705 8.412,12.2005 8.268,12.1245 C8.124,12.0495 8.006,11.9605 7.914,11.8605 C7.822,11.7615 7.754,11.6475 7.71,11.5215 C7.666,11.3955 7.644,11.2505 7.644,11.0865 C7.644,10.9145 7.669,10.7485 7.719,10.5885 C7.769,10.4295 7.845,10.2855 7.947,10.1595 C8.049,10.0335 8.176,9.9285 8.328,9.8425 C8.48,9.7555 8.66,9.7025 8.868,9.6835 L8.868,8.9565 L9.42,8.9565 Z M13.7801,0.0496 C14.3001,-0.1204 14.8701,0.1596 15.0401,0.6896 L15.0401,0.6896 L16.3601,4.7496 L1.6701,4.7496 C1.6501,4.3196 1.9201,3.8996 2.3601,3.7596 L2.3601,3.7596 Z M13.7401,1.1596 L9.9401,2.3996 L10.2501,3.3496 L14.0501,2.1096 L13.7401,1.1596 Z" id="Combined-Shape"></path>
                </g>
            </g>
        </g>
    </g>
</svg>