<?xml version="1.0" encoding="UTF-8"?>
<svg width="20px" height="20px" viewBox="0 0 20 20" version="1.1" xmlns="http://www.w3.org/2000/svg" xmlns:xlink="http://www.w3.org/1999/xlink">
    <!-- Generator: Sketch 64 (93537) - https://sketch.com -->
    <title>perks</title>
    <desc>Created with Sketch.</desc>
    <g id="Talent-dashboard" stroke="none" stroke-width="1" fill="none" fill-rule="evenodd">
        <g id="Dev---Dashboard-New" transform="translate(-40.000000, -849.000000)" fill="#2E2E2E">
            <g id="icon/perks" transform="translate(40.000000, 849.000000)">
                <path d="M10,-1.49213975e-13 C14.418278,-1.49213975e-13 18,3.581722 18,8 C18,10.5261044 16.8291847,12.7787503 15.0006084,14.2448832 L15,19.0041082 C15,19.1314821 14.9756658,19.2576833 14.928306,19.3759252 C14.7376249,19.8519938 14.2221051,20.1008258 13.7389445,19.9695305 L13.6281829,19.9324142 L10,18.4792078 L6.37181705,19.9324142 C5.85912779,20.1377631 5.27704286,19.8886145 5.07169397,19.3759252 C5.02433418,19.2576833 5,19.1314821 5,19.0041082 L5.00038632,14.2456806 C3.17123994,12.7795672 2,10.5265625 2,8 C2,3.581722 5.581722,-1.49213975e-13 10,-1.49213975e-13 Z M10.6206061,3.55555556 L9.72848485,3.55555556 L9.72848485,4.63673712 C9.39232323,4.66499359 9.10141414,4.74381425 8.85575758,4.87319912 C8.61010101,5.0010968 8.40484848,5.15725094 8.24,5.34463592 C8.07515152,5.53202089 7.95232323,5.74617515 7.87151515,5.98263715 C7.79070707,6.22058632 7.75030303,6.46745859 7.75030303,6.72325395 C7.75030303,6.96715186 7.78585859,7.1827933 7.8569697,7.37017828 C7.92808081,7.55756325 8.0379798,7.72710204 8.18666667,7.87433309 C8.33535354,8.02305133 8.52606061,8.15541056 8.75878788,8.26694923 C8.93333333,8.35171863 9.13515152,8.43146878 9.36424242,8.50619969 L9.60242424,8.57925752 L10.1551515,8.73987322 C10.5753535,8.86479653 10.7854545,9.05813024 10.7854545,9.31987433 C10.7854545,9.51023367 10.6965657,9.66490064 10.5187879,9.78387523 C10.3410101,9.904337 10.1325253,9.96382429 9.89333333,9.96382429 C9.38190797,9.96382429 8.85771293,9.76876472 8.32074822,9.37864558 L8.11878788,9.22320748 L7.33333333,10.5691075 C7.45616162,10.6761846 7.61292929,10.7788002 7.80363636,10.8769543 C7.99434343,10.9751083 8.19959596,11.0613649 8.41939394,11.1372112 C8.63919192,11.2100831 8.86222222,11.2695704 9.08848485,11.3141859 C9.2393266,11.3439295 9.384422,11.3644196 9.52377104,11.3747748 L9.72848485,11.3825962 L9.72848485,12.4444444 L10.6206061,12.4444444 L10.6206061,11.3364936 C10.9955556,11.2294165 11.3139394,11.1104419 11.5757576,10.9795698 C11.8375758,10.8486978 12.0492929,10.6984924 12.2109091,10.5259792 C12.3725253,10.3519789 12.4888889,10.1556708 12.56,9.93556782 C12.6311111,9.71695202 12.6666667,9.46413102 12.6666667,9.17710483 C12.6666667,8.70715521 12.5244444,8.32494934 12.24,8.03197442 C11.9911111,7.77432008 11.6061111,7.55196308 11.085,7.36390713 L10.8533333,7.28540888 L10.2812121,7.10843418 C10.0808081,7.04299816 9.91919192,6.9552544 9.79636364,6.84817727 C9.67353535,6.74258733 9.61212121,6.62807428 9.61212121,6.5090997 C9.61212121,6.37822765 9.68969697,6.26074025 9.84484848,6.15663748 C10,6.0540219 10.200404,6.00197052 10.4460606,6.00197052 C10.7896104,6.00197052 11.1379097,6.10795502 11.4909586,6.3217971 L11.6678788,6.43771494 L12.3854545,5.1527894 C11.9668687,4.90944918 11.4641414,4.74695128 10.8772727,4.66629197 L10.6206061,4.63673712 L10.6206061,3.55555556 Z M19.365032,4.39220401 C20.204063,6.99556195 20.204063,9.36207201 19.3528847,11.4738717 C19.2496531,11.7299925 18.9583405,11.8539336 18.7022197,11.750702 C18.4460989,11.6474705 18.3221578,11.3561578 18.4253894,11.100037 C19.1839439,9.21803974 19.1839439,7.09029973 18.4132421,4.69895448 C18.3285353,4.43612494 18.4729323,4.15439106 18.7357618,4.06968426 C18.9985913,3.98497746 19.2803252,4.12937447 19.365032,4.39220401 Z M0.627762999,4.39220401 C0.712469802,4.12937447 0.994203676,3.98497746 1.25703322,4.06968426 C1.51986276,4.15439106 1.66425977,4.43612494 1.57955297,4.69895448 C0.80885114,7.09029973 0.80885114,9.21803974 1.56740567,11.100037 C1.67063726,11.3561578 1.54669609,11.6474705 1.29057531,11.750702 C1.03445454,11.8539336 0.743141893,11.7299925 0.639910303,11.4738717 C-0.211267971,9.36207201 -0.211267971,6.99556195 0.627762999,4.39220401 Z" id="Combined-Shape"></path>
            </g>
        </g>
    </g>
</svg>