<?xml version="1.0" encoding="UTF-8"?>
<svg width="40px" height="40px" viewBox="0 0 40 40" version="1.1" xmlns="http://www.w3.org/2000/svg" xmlns:xlink="http://www.w3.org/1999/xlink">
    <g id="Client-dashboard" stroke="none" stroke-width="1" fill="none" fill-rule="evenodd">
        <g id="Client---Dashboard---First-time---hover" transform="translate(-984.000000, -304.000000)" fill="#4C00FF">
            <g id="icon/professional" transform="translate(984.000000, 304.000000)">
                <path d="M13.7782222,27.1646667 L17.756,36.2757778 L19.0226667,31.4535556 L17.756,28.0757778 L22.2226667,28.0757778 L20.956,31.4535556 L22.2226667,36.2757778 L26.2004444,27.1646667 L26.2448889,27.1868889 L26.2448889,27.1868889 C26.4226667,27.3868889 26.6448889,27.5424444 26.8893333,27.6757778 L35.8893333,33.2757778 C38.4004444,34.5202222 40.0004444,37.098 40.0004444,39.898 L40.0004444,40.0002222 L0.000444444444,40.0002222 L0.000444444444,39.898 C0.000444444444,37.098 1.57822222,34.5202222 4.08933333,33.2757778 L13.0893333,27.6757778 C13.356,27.5424444 13.5782222,27.3646667 13.756,27.1646667 L13.7782222,27.1646667 Z M19.9893333,0.000222222222 C24.7671111,0.000222222222 28.6382222,3.87355556 28.6382222,8.64911111 L28.6382222,8.64911111 L28.6382222,12.2402222 C28.6382222,14.7313333 27.896,17.1468889 26.5337778,19.1913333 C26.0782222,19.8713333 25.556,20.5113333 24.9693333,21.098 L24.9693333,21.098 L24.4271111,21.5802222 C21.9004444,23.838 18.0782222,23.838 15.5493333,21.5802222 L15.5493333,21.5802222 L15.0093333,21.098 C14.4226667,20.5113333 13.8982222,19.8713333 13.4448889,19.1913333 C12.0826667,17.1468889 11.3404444,14.7313333 11.3404444,12.2402222 L11.3404444,12.2402222 L11.3404444,8.64911111 C11.3404444,3.87355556 15.2115556,0.000222222222 19.9893333,0.000222222222 Z" id="Combined-Shape"></path>
            </g>
        </g>
    </g>
</svg>