<svg width="18" height="18" viewBox="0 0 18 18" fill="none" xmlns="http://www.w3.org/2000/svg">
<path d="M1.71875 16.3168H0.968749C0.968749 16.731 1.30454 17.0668 1.71875 17.0668V16.3168ZM2.01164 12.4883L2.54197 13.0187L2.01164 12.4883ZM1.71875 13.1954H2.46875H1.71875ZM5.54718 16.0239L6.07751 16.5542L5.54718 16.0239ZM16.8284 3.32843L16.2981 3.85876V3.85876L16.8284 3.32843ZM16.8284 4.74264L16.2981 4.21231L16.8284 4.74264ZM14.7071 1.20711L15.2374 0.676777V0.676777L14.7071 1.20711ZM13.2929 1.20711L12.7625 0.676776L13.2929 1.20711ZM3.46479 1.48518L3.20223 0.782639C2.96323 0.871962 2.78603 1.07666 2.73188 1.326C2.67773 1.57533 2.75405 1.83509 2.93446 2.01551L3.46479 1.48518ZM1.4849 3.46508L2.01523 2.93475C1.83481 2.75433 1.57505 2.67801 1.32571 2.73216C1.07638 2.78632 0.871679 2.96351 0.782356 3.20251L1.4849 3.46508ZM3.85233 5.83251L3.322 6.36284C3.6149 6.65574 4.08977 6.65574 4.38266 6.36284L3.85233 5.83251ZM5.83223 3.85262L6.36256 4.38295C6.50321 4.24229 6.58223 4.05153 6.58223 3.85262C6.58223 3.6537 6.50321 3.46294 6.36256 3.32229L5.83223 3.85262ZM9.32285 12.2529L8.79252 11.7226L8.26219 12.2529L8.79252 12.7832L9.32285 12.2529ZM12.1513 9.42448L12.6816 8.89415L12.1513 8.36382L11.6209 8.89415L12.1513 9.42448ZM15.0975 16.6134L14.5672 16.083V16.083L15.0975 16.6134ZM16.5117 15.1991L17.0421 15.7295V15.7295L16.5117 15.1991ZM12.0303 2.96967C11.7374 2.67678 11.2625 2.67678 10.9696 2.96967C10.6767 3.26256 10.6767 3.73744 10.9696 4.03033L12.0303 2.96967ZM13.9696 7.03033C14.2625 7.32322 14.7374 7.32322 15.0303 7.03033C15.3232 6.73744 15.3232 6.26256 15.0303 5.96967L13.9696 7.03033ZM14.1767 1.73744L16.2981 3.85876L17.3587 2.7981L15.2374 0.676777L14.1767 1.73744ZM16.2981 4.21231L5.01685 15.4935L6.07751 16.5542L17.3587 5.27297L16.2981 4.21231ZM2.54197 13.0187L13.8232 1.73744L12.7625 0.676776L1.48131 11.958L2.54197 13.0187ZM4.84007 15.5668H1.71875V17.0668H4.84007V15.5668ZM2.46875 16.3168V13.1954H0.968749V16.3168H2.46875ZM1.48131 11.958C1.15312 12.2862 0.968749 12.7313 0.968749 13.1954H2.46875C2.46875 13.1291 2.49509 13.0655 2.54197 13.0187L1.48131 11.958ZM5.01685 15.4935C4.96996 15.5404 4.90637 15.5668 4.84007 15.5668V17.0668C5.3042 17.0668 5.74932 16.8824 6.07751 16.5542L5.01685 15.4935ZM16.2981 3.85876C16.3957 3.95639 16.3957 4.11468 16.2981 4.21231L17.3587 5.27297C18.0421 4.58955 18.0421 3.48151 17.3587 2.7981L16.2981 3.85876ZM15.2374 0.676777C14.554 -0.00663978 13.446 -0.00664258 12.7625 0.676776L13.8232 1.73744C13.9208 1.63981 14.0791 1.6398 14.1767 1.73744L15.2374 0.676777ZM6.78683 2.89802C7.9114 4.02259 7.86955 5.54476 6.78683 6.62748L7.84749 7.68814C9.49844 6.0372 9.57525 3.56513 7.84749 1.83736L6.78683 2.89802ZM6.78683 6.62748C5.65827 7.75604 3.97923 7.8686 2.89774 6.78711L1.83708 7.84777C3.60792 9.61861 6.24237 9.29326 7.84749 7.68814L6.78683 6.62748ZM3.72736 2.18772C4.7218 1.81606 5.93347 2.04466 6.78683 2.89802L7.84749 1.83736C6.58302 0.572897 4.7529 0.203099 3.20223 0.782639L3.72736 2.18772ZM2.89774 6.78711C2.04438 5.93375 1.81578 4.72208 2.18743 3.72764L0.782356 3.20251C0.202817 4.75319 0.572614 6.5833 1.83708 7.84777L2.89774 6.78711ZM0.954565 3.99541L3.322 6.36284L4.38266 5.30218L2.01523 2.93475L0.954565 3.99541ZM4.38266 6.36284L6.36256 4.38295L5.3019 3.32229L3.322 5.30218L4.38266 6.36284ZM6.36256 3.32229L3.99512 0.954848L2.93446 2.01551L5.3019 4.38295L6.36256 3.32229ZM9.85318 12.7832L12.6816 9.95481L11.6209 8.89415L8.79252 11.7226L9.85318 12.7832ZM11.6209 9.95481L15.9814 14.3153L17.0421 13.2546L12.6816 8.89415L11.6209 9.95481ZM14.2136 16.083L9.85318 11.7226L8.79252 12.7832L13.153 17.1437L14.2136 16.083ZM13.153 17.1437C13.8364 17.8271 14.9444 17.8271 15.6278 17.1437L14.5672 16.083C14.4696 16.1807 14.3113 16.1807 14.2136 16.083L13.153 17.1437ZM15.9814 14.3153C16.079 14.4129 16.079 14.5712 15.9814 14.6688L17.0421 15.7295C17.7255 15.0461 17.7255 13.938 17.0421 13.2546L15.9814 14.3153ZM10.9696 4.03033L13.9696 7.03033L15.0303 5.96967L12.0303 2.96967L10.9696 4.03033ZM15.9814 14.6688L14.5672 16.083L15.6278 17.1437L17.0421 15.7295L15.9814 14.6688Z" fill="#04004E"/>
</svg>
