<svg width="20" height="20" viewBox="0 0 20 20" fill="none" xmlns="http://www.w3.org/2000/svg">
<path d="M5.78216 1H14.2169C17.165 1 19 3.08119 19 6.02638V13.9736C19 16.9188 17.165 19 14.2159 19H5.78216C2.83405 19 1 16.9188 1 13.9736V6.02638C1 3.08119 2.84281 1 5.78216 1Z" stroke="#04004E" stroke-width="1.5" stroke-linecap="round" stroke-linejoin="round"/>
<path d="M5.5 8.06015C5.5 5.81779 7.51472 4 10 4C12.4853 4 14.5 5.81779 14.5 8.06015C14.5 8.88204 14.2293 9.64689 13.764 10.2861C13.2541 10.9866 12.7005 11.7269 12.4255 12.5203C12.2447 13.0421 11.8023 13.5 11.25 13.5H8.75C8.19772 13.5 7.7553 13.0421 7.57445 12.5203C7.2995 11.7269 6.74586 10.9866 6.23596 10.2861C5.77066 9.64689 5.5 8.88204 5.5 8.06015Z" stroke="#04004E" stroke-width="1.5" stroke-linejoin="round"/>
<path d="M8.25 16H11.75" stroke="#04004E" stroke-width="1.5" stroke-linecap="round"/>
</svg>
