<svg width="30" height="30" viewBox="0 0 30 30" fill="none" xmlns="http://www.w3.org/2000/svg">
<g>
<path d="M5.7618 8.7605L15.0425 7.45619C18.2863 7.0003 20.6272 9.00647 21.0826 12.2471L22.3116 20.9914C22.767 24.232 21.0697 26.8057 17.8249 27.2617L8.54527 28.5659C5.30147 29.0217 2.96163 27.0154 2.5062 23.7748L1.27726 15.0305C0.821828 11.7899 2.52764 9.21503 5.7618 8.7605Z" stroke="#04004E" stroke-width="1.5" stroke-linecap="round" stroke-linejoin="round"/>
<path d="M6.5431 16.5724C6.19635 14.1051 8.13204 11.7935 10.8666 11.4091C13.6011 11.0248 16.099 12.7134 16.4458 15.1807C16.5729 16.085 16.3933 16.9684 15.9802 17.7437C15.5095 18.6271 14.9934 19.5651 14.833 20.5182C14.7414 21.0628 14.368 21.5764 13.821 21.6532L10.8502 22.0707C10.3033 22.1476 9.80283 21.7569 9.56462 21.2586C9.14775 20.3867 8.39309 19.6272 7.69709 18.9078C7.08628 18.2764 6.6702 17.4767 6.5431 16.5724Z" stroke="#04004E" stroke-width="1.5" stroke-linejoin="round"/>
<path d="M10.7967 24.8833L14.6478 24.3421" stroke="#04004E" stroke-width="1.5" stroke-linecap="round"/>
<path d="M9.19058 5.37185C10.0376 2.21092 12.6139 0.507233 15.7685 1.35252L24.8211 3.77815C27.9851 4.62595 29.3561 7.3873 28.5091 10.5482L26.2237 19.0776C26.0305 19.7984 25.7479 20.4435 25.3891 21" stroke="#04004E" stroke-width="1.5" stroke-linecap="round"/>
</g>
</svg>
