<?xml version="1.0" encoding="UTF-8"?>
<svg width="16px" height="16px" viewBox="0 0 16 16" version="1.1" xmlns="http://www.w3.org/2000/svg" xmlns:xlink="http://www.w3.org/1999/xlink">
    <!-- Generator: Sketch 64 (93537) - https://sketch.com -->
    <title>icon/talents-small</title>
    <desc>Created with Sketch.</desc>
    <defs>
        <radialGradient cx="132.340158%" cy="50%" fx="132.340158%" fy="50%" r="132.340158%" gradientTransform="translate(1.323402,0.500000),rotate(180.000000),scale(1.000000,1.744756),translate(-1.323402,-0.500000)" id="radialGradient-1">
            <stop stop-color="#F7B299" offset="0%"></stop>
            <stop stop-color="#4C00FF" offset="100%"></stop>
        </radialGradient>
    </defs>
    <g id="Symbols" stroke="none" stroke-width="1" fill="none" fill-rule="evenodd">
        <g id="btn-dropdown/normal+icon" transform="translate(-20.000000, -12.000000)" fill="url(#radialGradient-1)">
            <g id="icon/quotes" transform="translate(20.000000, 12.000000)">
                <path d="M14,0 C15.1045695,-2.02906125e-16 16,0.8954305 16,2 L16,14 C16,15.1045695 15.1045695,16 14,16 L2,16 C0.8954305,16 1.3527075e-16,15.1045695 0,14 L0,2 C-1.3527075e-16,0.8954305 0.8954305,2.02906125e-16 2,0 L14,0 Z M6.11111111,4.44444444 L3.66666667,4.44444444 C3.11438192,4.44444444 2.66666667,4.89215969 2.66666667,5.44444444 L2.66666667,5.44444444 L2.66666667,7.88888889 C2.66666667,8.44117364 3.11438192,8.88888889 3.66666667,8.88888889 L3.66666667,8.88888889 L4.44366667,8.88844444 L4.44444444,12.4444444 L6.93345419,8.84717052 L6.99635319,8.74331106 C7.07144847,8.60038982 7.11111111,8.44082978 7.11111111,8.27817856 L7.11111111,8.27817856 L7.11111111,5.44444444 C7.11111111,4.89215969 6.66339586,4.44444444 6.11111111,4.44444444 L6.11111111,4.44444444 Z M12.3333333,4.44444444 L9.88888889,4.44444444 C9.33660414,4.44444444 8.88888889,4.89215969 8.88888889,5.44444444 L8.88888889,5.44444444 L8.88888889,7.88888889 C8.88888889,8.44117364 9.33660414,8.88888889 9.88888889,8.88888889 L9.88888889,8.88888889 L10.6658889,8.88844444 L10.6666667,12.4444444 L13.1556764,8.84717052 L13.2185754,8.74331106 C13.2936707,8.60038982 13.3333333,8.44082978 13.3333333,8.27817856 L13.3333333,8.27817856 L13.3333333,5.44444444 C13.3333333,4.89215969 12.8856181,4.44444444 12.3333333,4.44444444 L12.3333333,4.44444444 Z" id="Combined-Shape"></path>
            </g>
        </g>
    </g>
</svg>