<svg width="20" height="20" viewBox="0 0 20 20" fill="none" xmlns="http://www.w3.org/2000/svg">
<path fill-rule="evenodd" clip-rule="evenodd" d="M18.0838 6.00571L17.501 4.99429C17.0079 4.13846 15.9151 3.84323 15.0581 4.33429V4.33429C14.6502 4.5746 14.1634 4.64278 13.7051 4.52379C13.2469 4.4048 12.8547 4.10842 12.6152 3.7C12.4612 3.4404 12.3784 3.14472 12.3752 2.84286V2.84286C12.3891 2.35889 12.2066 1.88991 11.8691 1.54275C11.5316 1.19558 11.068 0.999801 10.5838 1H9.40954C8.9352 0.999995 8.48042 1.18901 8.14582 1.52521C7.81123 1.86142 7.6244 2.3171 7.62668 2.79143V2.79143C7.61262 3.77075 6.81467 4.55724 5.83525 4.55714C5.53339 4.55401 5.23771 4.47122 4.97811 4.31714V4.31714C4.12111 3.82608 3.02835 4.12132 2.53525 4.97714L1.90953 6.00571C1.41703 6.86047 1.70825 7.95254 2.56096 8.44857V8.44857C3.11524 8.76858 3.45669 9.35998 3.45669 10C3.45669 10.64 3.11524 11.2314 2.56096 11.5514V11.5514C1.70934 12.0441 1.4178 13.1335 1.90953 13.9857V13.9857L2.50096 15.0057C2.732 15.4226 3.11964 15.7302 3.57811 15.8605C4.03657 15.9908 4.52806 15.9331 4.94382 15.7V15.7C5.35253 15.4615 5.83958 15.3962 6.2967 15.5185C6.75382 15.6408 7.14313 15.9407 7.37811 16.3514C7.53218 16.611 7.61497 16.9067 7.61811 17.2086V17.2086C7.61811 18.198 8.42016 19 9.40954 19H10.5838C11.5699 19 12.3705 18.2032 12.3752 17.2171V17.2171C12.373 16.7413 12.561 16.2843 12.8974 15.9479C13.2339 15.6114 13.6909 15.4234 14.1667 15.4257C14.4678 15.4338 14.7623 15.5162 15.0238 15.6657V15.6657C15.8786 16.1582 16.9706 15.867 17.4667 15.0143V15.0143L18.0838 13.9857C18.3227 13.5757 18.3883 13.0874 18.266 12.6288C18.1437 12.1703 17.8437 11.7795 17.4324 11.5429V11.5429C17.0211 11.3062 16.7211 10.9154 16.5988 10.4569C16.4765 9.99836 16.5421 9.51002 16.781 9.1C16.9363 8.82879 17.1612 8.60391 17.4324 8.44857V8.44857C18.28 7.95281 18.5705 6.86712 18.0838 6.01429V6.01429V6.00571Z" stroke="#04004E" stroke-width="1.5" stroke-linecap="round" stroke-linejoin="round"/>
<circle cx="10.001" cy="10" r="2.46857" stroke="#04004E" stroke-width="1.5" stroke-linecap="round" stroke-linejoin="round"/>
</svg>
