<?xml version="1.0" encoding="UTF-8"?>
<svg width="16px" height="16px" viewBox="0 0 16 16" version="1.1" xmlns="http://www.w3.org/2000/svg" xmlns:xlink="http://www.w3.org/1999/xlink">
    <g id="Admin" stroke="none" stroke-width="1" fill="none" fill-rule="evenodd">
        <g id="Admin---Projects---Sort" transform="translate(-1668.000000, -160.000000)" fill="#2E2E2E">
            <g id="icon/sort" transform="translate(1668.000000, 160.000000)">
                <path d="M12,2.072 C12.4102687,2.072 12.7484057,2.36266555 12.7946178,2.73713233 L12.8,2.82494118 L12.8,12.939 L14.6343146,11.1063146 C14.9227017,10.8179274 15.3764866,10.7957438 15.6903196,11.0397637 L15.7656854,11.1063146 C16.0540726,11.3947017 16.0762562,11.8484866 15.8322363,12.1623196 L15.7656854,12.2376854 L12,16.0033708 L8.23431458,12.2376854 C7.92189514,11.925266 7.92189514,11.418734 8.23431458,11.1063146 C8.52270174,10.8179274 8.97648659,10.7957438 9.29031955,11.0397637 L9.36568542,11.1063146 L11.199,12.939 L11.2,2.82494118 C11.2,2.40910325 11.5581722,2.072 12,2.072 Z M4,4.61852778e-14 L7.76568542,3.76568542 L7.83223631,3.8410513 C8.07625622,4.15488426 8.05407259,4.60866911 7.76568542,4.89705627 L7.76568542,4.89705627 L7.69031955,4.96360716 C7.37648659,5.20762707 6.92270174,5.18544344 6.63431458,4.89705627 L6.63431458,4.89705627 L4.8,3.064 L4.8,12.8470588 L4.79461781,12.9348677 C4.74840573,13.3093344 4.41026867,13.6 4,13.6 C3.5581722,13.6 3.2,13.2628968 3.2,12.8470588 L3.2,12.8470588 L3.199,3.065 L1.36568542,4.89705627 L1.29031955,4.96360716 C0.976486589,5.20762707 0.522701744,5.18544344 0.234314575,4.89705627 C-0.0781048584,4.58463684 -0.0781048584,4.07810486 0.234314575,3.76568542 L0.234314575,3.76568542 L4,4.61852778e-14 Z" id="Combined-Shape"></path>
            </g>
        </g>
    </g>
</svg>