<?xml version="1.0" encoding="UTF-8"?>
<svg width="16px" height="18px" viewBox="0 0 16 18" version="1.1" xmlns="http://www.w3.org/2000/svg" xmlns:xlink="http://www.w3.org/1999/xlink">
    <g id="Page-1" stroke="none" stroke-width="1" fill="none" fill-rule="evenodd">
        <g id="Artboard" transform="translate(-233.000000, -104.000000)" fill="#04004E" fill-rule="nonzero">
            <g id="stackoverflow" transform="translate(233.000000, 104.000000)">
                <g id="icon/stackoverflow">
                    <path d="M11.9595536,11.2098214 L4.09660714,9.55044643 L3.76714286,11.1294643 L11.6300893,12.7767857 L11.9595536,11.2098214 Z M14.0086607,7.71428571 L7.84125,2.559375 L6.81669643,3.796875 L12.9841071,8.95178571 L14.0086607,7.71428571 Z M12.7550893,9.309375 L5.47071429,5.90625 L4.79973214,7.37276786 L12.0800893,10.7678571 L12.7550893,9.309375 Z M10.8064286,0 L9.5207143,0.964285714 L14.3140179,7.40491071 L15.5997321,6.440625 L10.8064286,0 Z M11.6300893,13.1785714 L3.594375,13.1785714 L3.594375,14.7736607 L11.6300893,14.7736607 L11.6300893,13.1785714 Z M13.2251786,16.3928571 L1.99526786,16.3928571 L1.99526786,11.5714286 L0.388125,11.5714286 L0.388125,18 L14.8323214,18 L14.8323214,11.5714286 L13.2251786,11.5714286 L13.2251786,16.3928571 Z" id="Shape"></path>
                </g>
            </g>
        </g>
    </g>
</svg>