<svg width="22" height="23" viewBox="0 0 22 23" fill="none" xmlns="http://www.w3.org/2000/svg">
<path opacity="0.7" d="M9.44462 2.42411C10.2451 1.43385 11.7549 1.43385 12.5554 2.42411L12.7313 2.64181C13.2287 3.25707 14.042 3.52133 14.806 3.31591L15.0763 3.24323C16.306 2.9126 17.5275 3.80002 17.593 5.07168L17.6074 5.35123C17.6481 6.14133 18.1508 6.83317 18.8896 7.11606L19.151 7.21615C20.3402 7.67145 20.8067 9.10733 20.1123 10.1746L19.9597 10.4093C19.5282 11.0724 19.5282 11.9276 19.9597 12.5907L20.1123 12.8254C20.8067 13.8927 20.3402 15.3286 19.151 15.7839L18.8896 15.8839C18.1508 16.1668 17.6481 16.8587 17.6074 17.6488L17.593 17.9283C17.5275 19.2 16.306 20.0874 15.0763 19.7568L14.806 19.6841C14.042 19.4787 13.2287 19.7429 12.7313 20.3582L12.5554 20.5759C11.7549 21.5662 10.2451 21.5662 9.44462 20.5759L9.26865 20.3582C8.77129 19.7429 7.95799 19.4787 7.19397 19.6841L6.92365 19.7568C5.69398 20.0874 4.47255 19.2 4.407 17.9283L4.39259 17.6488C4.35187 16.8587 3.84922 16.1668 3.11037 15.8839L2.84896 15.7839C1.65979 15.3286 1.19325 13.8927 1.88768 12.8254L2.04034 12.5907C2.4718 11.9276 2.4718 11.0724 2.04034 10.4093L1.88768 10.1746C1.19325 9.10733 1.65979 7.67145 2.84896 7.21615L3.11037 7.11606C3.84922 6.83317 4.35187 6.14133 4.39259 5.35123L4.407 5.07168C4.47255 3.80002 5.69398 2.9126 6.92365 3.24323L7.19397 3.31591C7.95799 3.52133 8.77129 3.25708 9.26865 2.64181L9.44462 2.42411Z" fill="#1833CC"/>
<path d="M6.875 11.5L9.625 14.25L15.125 8.75" stroke="white" stroke-width="1.5" stroke-linecap="round" stroke-linejoin="round"/>
</svg>
