<?xml version="1.0" encoding="UTF-8"?>
<svg width="16px" height="12px" viewBox="0 0 16 12" version="1.1" xmlns="http://www.w3.org/2000/svg" xmlns:xlink="http://www.w3.org/1999/xlink">
    <!-- Generator: Sketch 64 (93537) - https://sketch.com -->
    <title>icon/talents-small</title>
    <desc>Created with Sketch.</desc>
    <defs>
        <radialGradient cx="132.340158%" cy="50%" fx="132.340158%" fy="50%" r="198.510237%" gradientTransform="translate(1.323402,0.500000),scale(0.666667,1.000000),rotate(180.000000),scale(1.000000,1.744756),translate(-1.323402,-0.500000)" id="radialGradient-1">
            <stop stop-color="#F7B299" offset="0%"></stop>
            <stop stop-color="#4C00FF" offset="100%"></stop>
        </radialGradient>
    </defs>
    <g id="Symbols" stroke="none" stroke-width="1" fill="none" fill-rule="evenodd">
        <g id="btn-dropdown/normal+icon" transform="translate(-20.000000, -14.000000)" fill="url(#radialGradient-1)">
            <g id="icon/team" transform="translate(20.000000, 12.000000)">
                <path d="M16.0000889,12.4128889 C16.0000889,11.9755556 15.7529778,11.5764444 15.3618667,11.3817778 L13.9627556,10.5115556 C13.8320889,10.4466667 13.7494222,10.3133333 13.7494222,10.1684444 L13.7494222,9.868 C13.8516444,9.76666667 13.9414222,9.65644444 14.0196444,9.53911111 C14.2552,9.18533333 14.3840889,8.76755556 14.3840889,8.33733333 L14.3840889,7.71688889 C14.3840889,6.89111111 13.7147556,6.22266667 12.8889778,6.22266667 C12.0632,6.22266667 11.3938667,6.89111111 11.3938667,7.71688889 L11.3938667,8.33733333 C11.3938667,8.76755556 11.5227556,9.18533333 11.7583111,9.53911111 C11.8365333,9.65644444 11.9263111,9.76666667 12.0285333,9.868 L12.0285333,10.1684444 C12.0285333,10.3133333 11.9458667,10.4466667 11.8152,10.5115556 L11.2232,10.8795556 L9.84008889,10.02 C9.61608889,9.90888889 9.47564444,9.68044444 9.47564444,9.43066667 L9.47564444,8.91688889 C9.64897778,8.74355556 9.80453333,8.55333333 9.93875556,8.35244444 C10.3423111,7.74622222 10.5618667,7.03066667 10.5618667,6.29288889 L10.5618667,5.22888889 C10.5618667,3.81377778 9.4152,2.66711111 8.00008889,2.66711111 C6.58497778,2.66711111 5.43742222,3.81377778 5.43742222,5.22888889 L5.43742222,6.29288889 C5.43742222,7.03066667 5.65786667,7.74622222 6.06142222,8.35244444 C6.19564444,8.55333333 6.3512,8.74355556 6.52453333,8.91688889 L6.52453333,9.43066667 C6.52453333,9.68044444 6.38408889,9.90888889 6.16008889,10.02 L4.77697778,10.8795556 L4.18497778,10.5115556 C4.05431111,10.4466667 3.97164444,10.3133333 3.97164444,10.1684444 L3.97164444,9.868 C4.07386667,9.76666667 4.16364444,9.65644444 4.24186667,9.53911111 C4.47742222,9.18533333 4.60631111,8.76755556 4.60631111,8.33733333 L4.60631111,7.71688889 C4.60631111,6.89111111 3.93697778,6.22266667 3.1112,6.22266667 C2.28542222,6.22266667 1.61608889,6.89111111 1.61608889,7.71688889 L1.61608889,8.33733333 C1.61608889,8.76755556 1.74497778,9.18533333 1.98053333,9.53911111 C2.05875556,9.65644444 2.14853333,9.76666667 2.25075556,9.868 L2.25075556,10.1684444 C2.25075556,10.3133333 2.16808889,10.4466667 2.03742222,10.5115556 L0.638311111,11.3817778 C0.2472,11.5764444 8.88888889e-05,11.9755556 8.88888889e-05,12.4128889 L8.88888889e-05,12.4448889 L2.8712,12.4448889 C2.74942222,12.7035556 2.66675556,12.9817778 2.66675556,13.2786667 L2.66675556,13.3337778 L13.3334222,13.3337778 L13.3334222,13.2786667 C13.3334222,12.9817778 13.2507556,12.7035556 13.1289778,12.4448889 L16.0000889,12.4448889 L16.0000889,12.4128889 Z" id="Fill-1"></path>
            </g>
        </g>
    </g>
</svg>