<svg width="18" height="18" viewBox="0 0 18 18" fill="none" xmlns="http://www.w3.org/2000/svg">
<path d="M13.8846 8.15987C15.02 8.00034 15.8942 7.02691 15.8966 5.84756C15.8966 4.6853 15.0493 3.72164 13.9384 3.53932" stroke="#04004E" stroke-width="1.5" stroke-linecap="round" stroke-linejoin="round"/>
<path d="M15.3829 10.8894C16.4825 11.0538 17.25 11.4388 17.25 12.2323C17.25 12.7785 16.8886 13.1333 16.3042 13.3563" stroke="#04004E" stroke-width="1.5" stroke-linecap="round" stroke-linejoin="round"/>
<path fill-rule="evenodd" clip-rule="evenodd" d="M9.0004 11.2259C6.3845 11.2259 4.15033 11.6223 4.15033 13.2054C4.15033 14.7876 6.37067 15.1954 9.0004 15.1954C11.6163 15.1954 13.8497 14.8031 13.8497 13.2192C13.8497 11.6353 11.6301 11.2259 9.0004 11.2259Z" stroke="#04004E" stroke-width="1.5" stroke-linecap="round" stroke-linejoin="round"/>
<path fill-rule="evenodd" clip-rule="evenodd" d="M9.00036 8.96662C10.7169 8.96662 12.1087 7.57565 12.1087 5.85831C12.1087 4.14178 10.7169 2.75 9.00036 2.75C7.28383 2.75 5.89205 4.14178 5.89205 5.85831C5.88554 7.56914 7.26674 8.96092 8.97757 8.96662H9.00036Z" stroke="#04004E" stroke-width="1.5" stroke-linecap="round" stroke-linejoin="round"/>
<path d="M4.11543 8.15987C2.97922 8.00034 2.1059 7.02691 2.10345 5.84756C2.10345 4.6853 2.95073 3.72164 4.06171 3.53932" stroke="#04004E" stroke-width="1.5" stroke-linecap="round" stroke-linejoin="round"/>
<path d="M2.6171 10.8894C1.51751 11.0538 0.75 11.4388 0.75 12.2323C0.75 12.7785 1.11137 13.1333 1.69576 13.3563" stroke="#04004E" stroke-width="1.5" stroke-linecap="round" stroke-linejoin="round"/>
</svg>
