<svg width="30" height="30" viewBox="0 0 30 30" fill="none" xmlns="http://www.w3.org/2000/svg">
<g>
<path d="M6.42957 14.4683L12.9282 13.5549" stroke="#04004E" stroke-width="1.5" stroke-linecap="round"/>
<path d="M6.97754 18.3674L8.27727 18.1848" stroke="#04004E" stroke-width="1.5" stroke-linecap="round"/>
<path fill-rule="evenodd" clip-rule="evenodd" d="M23.3963 22.0242C23.8503 25.2546 21.5999 28.241 18.3695 28.695C15.1391 29.149 12.1527 26.8986 11.6987 23.6682C11.2447 20.4378 13.4951 17.4514 16.7255 16.9974C19.9559 16.5434 22.9423 18.7938 23.3963 22.0242Z" stroke="#04004E" stroke-width="1.5" stroke-linecap="round" stroke-linejoin="round"/>
<path d="M19.9788 24.4018L17.3952 23.3147L16.9644 20.25" stroke="#04004E" stroke-width="1.5" stroke-linecap="round" stroke-linejoin="round"/>
<path d="M7.89159 27.5168C4.91135 27.9356 2.76163 26.0923 2.3432 23.115L1.21411 15.0812C0.79568 12.1039 2.3629 9.73819 5.33428 9.32059L13.8609 8.12225C16.8411 7.7034 18.9919 9.54657 19.4103 12.5239" stroke="#04004E" stroke-width="1.5" stroke-linecap="round" stroke-linejoin="round"/>
</g>
<path d="M11 4.83764C11.7793 1.97318 14.1496 0.429277 17.052 1.19529L25.3808 3.39341C28.2919 4.1617 29.5533 6.66406 28.774 9.52853L26.6713 17.2579C26.4936 17.9111 26.2336 18.4957 25.9035 19" stroke="#04004E" stroke-width="1.5" stroke-linecap="round"/>
</svg>
