<?xml version="1.0" encoding="UTF-8"?>
<svg width="16px" height="18px" viewBox="0 0 16 18" version="1.1">
    <g id="Developer" stroke="none" strokeWidth="1" fillRule="evenodd">
        <g id="Onboarding" transform="translate(-370.000000, -2157.000000)" fillRule="nonzero">
            <g id="trash-alt-regular" transform="translate(370.000000, 2157.000000)">
                <path
                d="M9.57142857,14.625 L10.4285714,14.625 C10.6652649,14.625 10.8571429,14.4361201 10.8571429,14.203125 L10.8571429,6.609375 C10.8571429,6.37637987 10.6652649,6.1875 10.4285714,6.1875 L9.57142857,6.1875 C9.33473511,6.1875 9.14285714,6.37637987 9.14285714,6.609375 L9.14285714,14.203125 C9.14285714,14.4361201 9.33473511,14.625 9.57142857,14.625 Z M15.4285714,2.8125 L12.4853571,2.8125 L11.2710714,0.819140625 C10.9610898,0.310694582 10.4027507,-0.000282392893 9.80035714,-1.92163266e-07 L6.19964286,-1.92163266e-07 C5.59750394,-1.92163266e-07 5.03949351,0.310909569 4.72964286,0.819140625 L3.51464286,2.8125 L0.571428571,2.8125 C0.255837286,2.8125 0,3.06433983 0,3.375 L0,3.9375 C0,4.24816017 0.255837286,4.49999981 0.571428571,4.49999981 L1.14285714,4.49999981 L1.14285714,16.3125 C1.14285714,17.2444805 1.910369,17.9999998 2.85714286,17.9999998 L13.1428571,17.9999998 C14.089631,17.9999998 14.8571429,17.2444805 14.8571429,16.3125 L14.8571429,4.49999981 L15.4285714,4.49999981 C15.7441627,4.49999981 16,4.24816017 16,3.9375 L16,3.375 C16,3.06433983 15.7441627,2.8125 15.4285714,2.8125 Z M6.13714286,1.78980469 C6.17599442,1.72614807 6.24598836,1.68729151 6.32142857,1.68749917 L9.67857143,1.68749917 C9.75388442,1.68741528 9.82371384,1.72625578 9.8625,1.78980469 L10.4860714,2.8125 L5.51392857,2.8125 L6.13714286,1.78980469 Z M13.1428571,16.3125 L2.85714286,16.3125 L2.85714286,4.5 L13.1428571,4.5 L13.1428571,16.3125 Z M5.57142857,14.625 L6.42857143,14.625 C6.66526489,14.625 6.85714286,14.4361201 6.85714286,14.203125 L6.85714286,6.609375 C6.85714286,6.37637987 6.66526489,6.1875 6.42857143,6.1875 L5.57142857,6.1875 C5.33473511,6.1875 5.14285714,6.37637987 5.14285714,6.609375 L5.14285714,14.203125 C5.14285714,14.4361201 5.33473511,14.625 5.57142857,14.625 Z"
                id="Shape"
                />
            </g>
        </g>
    </g>
</svg>